<svg width="542" height="59" viewBox="0 0 542 59" fill="none" xmlns="http://www.w3.org/2000/svg">
<path d="M19.208 32.808C17.352 32.808 15.528 32.584 13.736 32.136C11.976 31.688 10.312 31.112 8.744 30.408C8.04 33.288 7.432 36.44 6.92 39.864C6.792 40.824 6.6 41.704 6.344 42.504C6.088 43.272 5.688 43.896 5.144 44.376C4.6 44.856 3.8 45.096 2.744 45.096C1.752 45.096 1.096 44.712 0.776 43.944C0.456 43.176 0.296 42.232 0.296 41.112C0.296 40.76 0.424001 39.848 0.680001 38.376C0.936001 36.904 1.256 35.128 1.64 33.048C2.024 30.936 2.424 28.76 2.84 26.52C1.528 25.208 0.872 24.008 0.872 22.92C0.872 22.376 1.032 21.864 1.352 21.384C1.704 20.872 2.376 20.616 3.368 20.616C3.496 20.616 3.672 20.664 3.896 20.76C4.216 18.968 4.488 17.368 4.712 15.96C4.968 14.52 5.112 13.48 5.144 12.84C5.208 11.624 5.4 10.728 5.72 10.152C6.04 9.544 6.44 9.144 6.92 8.952C7.432 8.728 7.944 8.616 8.456 8.616C9.128 8.616 9.64 8.76 9.992 9.048C10.344 9.336 10.52 9.976 10.52 10.968C10.52 11.928 10.504 12.808 10.472 13.608C12.04 10.92 13.672 9.032 15.368 7.944C17.064 6.824 18.92 6.264 20.936 6.264C22.92 6.264 24.648 6.808 26.12 7.896C27.592 8.984 28.728 10.552 29.528 12.6C30.36 14.616 30.776 17.048 30.776 19.896C30.776 24.248 29.768 27.496 27.752 29.64C25.768 31.752 22.92 32.808 19.208 32.808ZM10.376 24.744C11.56 25.384 12.824 25.944 14.168 26.424C15.512 26.872 16.888 27.096 18.296 27.096C20.568 27.096 22.232 26.504 23.288 25.32C24.376 24.136 24.92 22.184 24.92 19.464C24.92 14.632 23.464 12.216 20.552 12.216C18.696 12.216 16.888 13.256 15.128 15.336C13.4 17.416 11.816 20.552 10.376 24.744ZM37.6471 47.112C36.8471 47.112 36.1591 46.824 35.5831 46.248C35.0391 45.672 34.7671 44.84 34.7671 43.752C34.7671 43.272 34.8311 42.488 34.9591 41.4C35.1191 40.28 35.3111 39 35.5351 37.56C35.7911 36.12 36.0311 34.616 36.2551 33.048C36.5111 31.48 36.7191 29.992 36.8791 28.584C37.0711 27.176 37.1991 25.976 37.2631 24.984C37.3271 23.768 37.6471 22.904 38.2231 22.392C38.7991 21.848 39.4871 21.576 40.2871 21.576C40.9271 21.576 41.5031 21.736 42.0151 22.056C42.5591 22.344 42.8951 22.968 43.0231 23.928C43.1831 24.856 43.1991 26.2 43.0711 27.96C44.4791 25.4 45.9031 23.112 47.3431 21.096C48.8151 19.08 50.3511 17.48 51.9511 16.296C54.6071 14.28 57.0071 13.272 59.1511 13.272C60.3671 13.272 61.1671 13.544 61.5511 14.088C61.9351 14.632 62.1271 15.192 62.1271 15.768C62.1271 16.152 62.0311 16.504 61.8391 16.824C61.6791 17.144 61.3271 17.48 60.7831 17.832C60.2391 18.184 59.4071 18.648 58.2871 19.224C56.7831 19.992 55.2951 21 53.8231 22.248C52.3831 23.496 50.9431 25.096 49.5031 27.048C48.0631 29 46.6071 31.4 45.1351 34.248C43.6631 37.096 42.1431 40.488 40.5751 44.424C40.2871 45.512 39.8711 46.232 39.3271 46.584C38.8151 46.936 38.2551 47.112 37.6471 47.112ZM62.1339 45.72C61.2379 45.72 60.4379 45.416 59.7339 44.808C59.0619 44.2 58.7259 43.208 58.7259 41.832C58.7259 41.096 58.8219 40.056 59.0139 38.712C59.2379 37.368 59.5259 35.912 59.8779 34.344C60.2299 32.744 60.6139 31.16 61.0299 29.592C61.4779 28.024 61.9099 26.632 62.3259 25.416C62.7419 24.168 63.1099 23.24 63.4299 22.632C63.8459 21.896 64.2299 21.448 64.5819 21.288C64.9659 21.096 65.3339 21 65.6859 21C66.3259 21 66.9179 21.192 67.4619 21.576C68.0379 21.96 68.3259 22.808 68.3259 24.12C68.3259 24.632 68.2299 25.464 68.0379 26.616C67.8459 27.736 67.6059 29.048 67.3179 30.552C67.0299 32.056 66.7099 33.608 66.3579 35.208C66.0379 36.808 65.7179 38.328 65.3979 39.768C65.1099 41.176 64.8699 42.36 64.6779 43.32C64.5179 44.12 64.1819 44.712 63.6699 45.096C63.1899 45.512 62.6779 45.72 62.1339 45.72ZM67.6539 16.248C66.5979 16.248 65.6219 15.944 64.7259 15.336C63.8299 14.696 63.3819 13.72 63.3819 12.408C63.3819 11.32 63.6539 10.44 64.1979 9.768C64.7419 9.096 65.3819 8.616 66.1179 8.328C66.8859 8.008 67.5579 7.848 68.1339 7.848C68.7099 7.848 69.3499 7.976 70.0539 8.232C70.7579 8.456 71.3659 8.888 71.8779 9.528C72.4219 10.136 72.6939 11.016 72.6939 12.168C72.6939 12.936 72.4219 13.64 71.8779 14.28C71.3339 14.888 70.6619 15.368 69.8619 15.72C69.0939 16.072 68.3579 16.248 67.6539 16.248ZM82.2811 58.2C80.4891 58.2 78.8571 58.088 77.3851 57.864C75.9131 57.672 74.4731 57.352 73.0651 56.904C71.6571 56.456 70.1371 55.864 68.5051 55.128C67.8331 54.808 67.2731 54.472 66.8251 54.12C66.3771 53.768 66.1531 53.24 66.1531 52.536C66.1531 51.512 66.4731 50.728 67.1131 50.184C67.7211 49.672 68.5691 49.416 69.6571 49.416C70.2331 49.416 70.9691 49.608 71.8651 49.992C72.7611 50.408 73.7851 50.872 74.9371 51.384C76.1211 51.928 77.4331 52.392 78.8731 52.776C80.3131 53.192 81.8651 53.4 83.5291 53.4C85.2251 53.4 86.8091 52.696 88.2811 51.288C89.7531 49.88 90.9371 47.896 91.8331 45.336C92.7611 42.808 93.2251 39.816 93.2251 36.36C93.2251 35.56 93.2091 34.696 93.1771 33.768C93.1451 32.808 93.1131 31.8 93.0811 30.744C91.9291 32.92 90.6811 34.952 89.3371 36.84C87.9931 38.728 86.6011 40.264 85.1611 41.448C83.7531 42.6 82.3291 43.176 80.8891 43.176C79.1291 43.176 77.8491 42.76 77.0491 41.928C76.2811 41.064 75.8971 39.704 75.8971 37.848C75.8971 36.28 76.0091 34.568 76.2331 32.712C76.4891 30.824 76.8251 28.92 77.2411 27C77.6571 25.08 78.1371 23.256 78.6811 21.528C79.2571 19.768 79.8651 18.248 80.5051 16.968C80.9851 16.04 81.7211 15.576 82.7131 15.576C83.3531 15.576 83.9931 15.88 84.6331 16.488C85.3051 17.096 85.6411 17.912 85.6411 18.936C85.6411 19.512 85.4971 20.344 85.2091 21.432C84.9211 22.52 84.5691 23.752 84.1531 25.128C83.7691 26.472 83.3691 27.896 82.9531 29.4C82.5371 30.872 82.1851 32.328 81.8971 33.768C81.6091 35.176 81.4651 36.456 81.4651 37.608C81.4651 37.736 81.5611 37.8 81.7531 37.8C82.1371 37.8 82.6491 37.48 83.2891 36.84C83.9611 36.168 84.6971 35.304 85.4971 34.248C86.3291 33.16 87.1611 31.976 87.9931 30.696C88.8571 29.384 89.6891 28.088 90.4891 26.808C91.2891 25.528 92.0091 24.36 92.6491 23.304C92.5531 22.792 92.4891 22.344 92.4571 21.96C92.4571 21.544 92.4571 21.192 92.4571 20.904C92.4571 19.592 92.6811 18.504 93.1291 17.64C93.6091 16.776 94.5371 16.344 95.9131 16.344C96.8091 16.344 97.4971 16.68 97.9771 17.352C98.4571 17.992 98.6971 18.904 98.6971 20.088C98.6971 20.6 98.6171 21.192 98.4571 21.864C98.2971 22.504 97.9771 23.528 97.4971 24.936L98.0251 23.448C98.3131 26.328 98.5531 28.888 98.7451 31.128C98.9691 33.368 99.0811 35.592 99.0811 37.8C99.0811 41.96 98.3771 45.56 96.9691 48.6C95.5931 51.672 93.6411 54.04 91.1131 55.704C88.6171 57.368 85.6731 58.2 82.2811 58.2ZM112.48 45.192C110.464 45.192 108.992 44.584 108.064 43.368C107.168 42.12 106.72 40.536 106.72 38.616C106.72 36.792 107.12 35.032 107.92 33.336C108.72 31.608 109.792 29.96 111.136 28.392C112.48 26.824 113.984 25.368 115.648 24.024C117.312 22.648 118.992 21.416 120.688 20.328C122.416 19.208 124.064 18.264 125.632 17.496C127.2 16.696 128.56 16.088 129.712 15.672C130.864 15.256 131.696 15.048 132.208 15.048C132.752 15.048 133.2 15.192 133.552 15.48C133.936 15.736 134.128 16.248 134.128 17.016C134.128 17.816 133.808 18.536 133.168 19.176C132.528 19.816 131.744 20.36 130.816 20.808C129.504 21.448 128.016 22.232 126.352 23.16C124.72 24.056 123.072 25.08 121.408 26.232C119.744 27.384 118.208 28.616 116.8 29.928C115.424 31.24 114.304 32.616 113.44 34.056C112.576 35.464 112.144 36.904 112.144 38.376C112.144 38.696 112.208 38.952 112.336 39.144C112.464 39.336 112.736 39.432 113.152 39.432C113.696 39.432 114.416 39.176 115.312 38.664C116.208 38.12 117.184 37.416 118.24 36.552C119.296 35.656 120.352 34.68 121.408 33.624C122.464 32.536 123.44 31.448 124.336 30.36C125.264 29.24 126.032 28.2 126.64 27.24C127.088 26.504 127.616 25.896 128.224 25.416C128.864 24.936 129.52 24.696 130.192 24.696C130.736 24.696 131.184 24.856 131.536 25.176C131.92 25.464 132.112 25.992 132.112 26.76C132.112 27.016 132.096 27.624 132.064 28.584C132.032 29.512 131.984 30.648 131.92 31.992C131.888 33.304 131.872 34.68 131.872 36.12C131.872 37.368 131.984 38.456 132.208 39.384C132.464 40.28 132.992 40.728 133.792 40.728C134.752 40.728 135.744 40.392 136.768 39.72C137.792 39.016 138.784 38.136 139.744 37.08C140.736 35.992 141.648 34.84 142.48 33.624C143.312 32.408 144.016 31.256 144.592 30.168C145.2 29.048 145.632 28.152 145.888 27.48C146.304 24.664 146.848 22.456 147.52 20.856C148.192 19.224 148.928 18.072 149.728 17.4C150.56 16.728 151.36 16.392 152.128 16.392C152.992 16.392 153.712 16.6 154.288 17.016C154.896 17.432 155.2 18.408 155.2 19.944C155.2 20.744 154.864 21.944 154.192 23.544C153.52 25.144 152.624 26.904 151.504 28.824C151.248 30.264 151.088 31.752 151.024 33.288C150.96 34.824 151.056 36.264 151.312 37.608C152.176 37 153.056 36.104 153.952 34.92C154.848 33.704 155.744 32.36 156.64 30.888C157.536 29.384 158.432 27.88 159.328 26.376C160.224 24.84 161.104 23.432 161.968 22.152C162.864 20.872 163.728 19.848 164.56 19.08C165.424 18.28 166.272 17.88 167.104 17.88C167.968 17.88 168.752 18.04 169.456 18.36C170.192 18.648 170.8 19.224 171.28 20.088C171.792 20.92 172.176 22.12 172.432 23.688C172.72 25.224 172.864 27.24 172.864 29.736C172.864 31.048 172.992 32.328 173.248 33.576C173.504 34.792 173.936 35.8 174.544 36.6C175.152 37.368 176 37.752 177.088 37.752C178.848 37.752 180.416 37.464 181.792 36.888C183.168 36.28 184.368 35.576 185.392 34.776C186.416 33.976 187.264 33.288 187.936 32.712C188.64 32.104 189.184 31.8 189.568 31.8C190.208 31.8 190.688 31.992 191.008 32.376C191.36 32.728 191.536 33.176 191.536 33.72C191.536 34.04 191.264 34.6 190.72 35.4C190.208 36.168 189.488 37.032 188.56 37.992C187.664 38.92 186.608 39.832 185.392 40.728C184.208 41.592 182.944 42.312 181.6 42.888C180.256 43.464 178.896 43.752 177.52 43.752C175.024 43.752 172.96 43.304 171.328 42.408C169.728 41.48 168.528 39.944 167.728 37.8C166.96 35.624 166.576 32.696 166.576 29.016C166.576 28.792 166.576 28.584 166.576 28.392C166.576 28.2 166.576 28.008 166.576 27.816C166.576 27.016 166.56 26.328 166.528 25.752C166.528 25.176 166.448 24.728 166.288 24.408C165.776 25.272 165.152 26.36 164.416 27.672C163.712 28.984 162.928 30.392 162.064 31.896C161.2 33.4 160.272 34.888 159.28 36.36C158.32 37.832 157.344 39.176 156.352 40.392C155.36 41.608 154.368 42.584 153.376 43.32C152.416 44.056 151.504 44.424 150.64 44.424C150 44.424 149.296 44.104 148.528 43.464C147.792 42.824 147.168 41.96 146.656 40.872C146.144 39.752 145.888 38.488 145.888 37.08C144.512 38.808 143.088 40.392 141.616 41.832C140.144 43.24 138.688 44.36 137.248 45.192C135.84 46.056 134.496 46.488 133.216 46.488C132.16 46.488 131.136 46.184 130.144 45.576C129.184 44.968 128.352 43.88 127.648 42.312C126.944 40.744 126.496 38.52 126.304 35.64C124.8 37.528 123.232 39.192 121.6 40.632C120 42.072 118.416 43.192 116.848 43.992C115.312 44.792 113.856 45.192 112.48 45.192ZM192.766 47.448C191.39 47.448 190.414 47.256 189.838 46.872C189.294 46.488 189.022 45.928 189.022 45.192C189.022 44.552 189.246 44.008 189.694 43.56C190.142 43.08 191.134 42.6 192.67 42.12C194.462 41.576 196.158 40.952 197.758 40.248C199.39 39.512 200.718 38.712 201.742 37.848C202.798 36.984 203.326 36.072 203.326 35.112C203.326 34.472 203.102 34.008 202.654 33.72C202.238 33.432 201.742 33.288 201.166 33.288C200.686 33.288 199.982 33.368 199.054 33.528C198.158 33.656 197.166 33.832 196.078 34.056C194.99 34.248 193.934 34.424 192.91 34.584C191.918 34.712 191.07 34.776 190.366 34.776C188.702 34.776 187.47 34.408 186.67 33.672C185.87 32.904 185.47 31.928 185.47 30.744C185.47 30.104 185.806 29.224 186.478 28.104C187.15 26.984 188.046 25.752 189.166 24.408C190.286 23.064 191.534 21.72 192.91 20.376C194.286 19.032 195.678 17.8 197.086 16.68C198.526 15.528 199.886 14.616 201.166 13.944C202.446 13.24 203.534 12.888 204.43 12.888C205.454 12.888 206.27 13.208 206.878 13.848C207.518 14.488 207.838 15.352 207.838 16.44C207.838 16.952 207.79 17.512 207.694 18.12C207.598 18.696 207.358 19.224 206.974 19.704C206.59 20.152 205.998 20.472 205.198 20.664C204.398 20.856 203.31 20.824 201.934 20.568C200.846 21.368 199.71 22.248 198.526 23.208C197.374 24.136 196.286 25.112 195.262 26.136C194.238 27.128 193.39 28.104 192.718 29.064C193.902 28.68 195.246 28.376 196.75 28.152C198.254 27.896 199.774 27.768 201.31 27.768C203.166 27.768 204.67 28.104 205.822 28.776C207.006 29.416 207.87 30.28 208.414 31.368C208.99 32.456 209.278 33.656 209.278 34.968C209.278 36.44 208.798 37.912 207.838 39.384C206.878 40.856 205.598 42.2 203.998 43.416C202.398 44.632 200.622 45.608 198.67 46.344C196.718 47.08 194.75 47.448 192.766 47.448ZM217.49 48.744C216.018 48.744 214.962 48.328 214.322 47.496C213.682 46.664 213.362 45.448 213.362 43.848C213.362 42.376 213.634 40.456 214.178 38.088C214.754 35.688 215.506 33.016 216.434 30.072C217.394 27.096 218.466 24.04 219.65 20.904C220.834 17.736 222.066 14.632 223.346 11.592C224.626 8.52 225.874 5.704 227.09 3.144C227.666 2.024 228.274 1.256 228.914 0.839999C229.554 0.423999 230.258 0.215999 231.026 0.215999C231.762 0.215999 232.386 0.423999 232.898 0.839999C233.41 1.224 233.666 1.848 233.666 2.712C233.666 2.904 233.41 3.64 232.898 4.92C232.386 6.168 231.714 7.8 230.882 9.816C230.05 11.8 229.138 14.04 228.146 16.536C227.154 19 226.162 21.576 225.17 24.264C224.178 26.92 223.282 29.544 222.482 32.136C221.682 34.728 221.042 37.128 220.562 39.336C221.682 37.832 222.882 36.168 224.162 34.344C225.474 32.488 226.802 30.648 228.146 28.824C229.522 26.968 230.866 25.272 232.178 23.736C233.522 22.2 234.77 20.968 235.922 20.04C237.074 19.112 238.082 18.648 238.946 18.648C240.546 18.648 241.826 19.096 242.786 19.992C243.778 20.856 244.274 22.36 244.274 24.504C244.274 25.496 244.082 26.696 243.698 28.104C243.314 29.48 242.85 30.936 242.306 32.472C241.794 33.976 241.346 35.432 240.962 36.84C240.578 38.248 240.386 39.48 240.386 40.536C240.386 41.112 240.658 41.4 241.202 41.4C242.77 41.4 244.354 41.064 245.954 40.392C247.586 39.72 249.138 38.888 250.61 37.896C252.114 36.872 253.474 35.864 254.69 34.872C255.938 33.848 256.946 33 257.714 32.328C258.258 31.816 258.754 31.48 259.202 31.32C259.65 31.128 260.066 31.032 260.45 31.032C261.762 31.032 262.418 31.688 262.418 33C262.418 33.256 262.37 33.576 262.274 33.96C262.178 34.312 261.874 34.76 261.362 35.304C260.85 35.848 260.082 36.616 259.058 37.608C258.034 38.6 256.834 39.656 255.458 40.776C254.114 41.896 252.642 42.968 251.042 43.992C249.474 44.984 247.858 45.8 246.194 46.44C244.53 47.08 242.914 47.4 241.346 47.4C238.978 47.4 237.154 46.728 235.874 45.384C234.594 44.072 233.954 42.28 233.954 40.008C233.954 38.44 234.274 36.472 234.914 34.104C235.554 31.704 236.274 29.256 237.074 26.76C235.954 27.848 234.786 29.144 233.57 30.648C232.354 32.12 231.122 33.688 229.874 35.352C228.626 36.984 227.394 38.6 226.178 40.2C224.994 41.768 223.858 43.208 222.77 44.52C221.682 45.8 220.69 46.824 219.794 47.592C218.898 48.36 218.13 48.744 217.49 48.744ZM312.016 44.04C312.016 44.936 311.712 45.592 311.104 46.008C310.496 46.424 309.696 46.648 308.704 46.68C307.584 46.68 306.304 46.232 304.864 45.336C303.456 44.472 301.968 43.304 300.4 41.832C298.832 40.36 297.296 38.728 295.792 36.936C294.288 35.112 292.896 33.288 291.616 31.464C290.784 34.888 290.08 37.608 289.504 39.624C288.928 41.608 288.352 43.032 287.776 43.896C287.232 44.76 286.576 45.192 285.808 45.192C284.688 45.192 283.936 44.712 283.552 43.752C283.168 42.76 282.976 41.576 282.976 40.2C282.976 39.24 283.04 38.264 283.168 37.272C283.328 36.248 283.568 35.048 283.888 33.672C284.208 32.264 284.64 30.52 285.184 28.44C284.48 27.768 284.128 27.016 284.128 26.184C284.128 25.576 284.288 24.984 284.608 24.408C284.96 23.8 285.616 23.304 286.576 22.92C287.472 19.976 288.24 17.576 288.88 15.72C289.52 13.832 290.096 12.376 290.608 11.352C291.12 10.328 291.584 9.624 292 9.24C292.448 8.856 292.912 8.664 293.392 8.664C294.288 8.664 294.976 8.92 295.456 9.432C295.936 9.944 296.176 10.84 296.176 12.12C296.176 12.6 296.032 13.576 295.744 15.048C295.488 16.488 294.992 18.616 294.256 21.432C297.072 19.256 299.664 17.112 302.031 15C304.4 12.888 306.464 10.968 308.224 9.24C310.016 7.512 311.472 6.136 312.592 5.112C313.712 4.088 314.432 3.576 314.752 3.576C315.68 3.576 316.416 3.88 316.96 4.488C317.536 5.064 317.824 5.72 317.824 6.456C317.824 7.192 317.504 7.96 316.864 8.76C316.16 9.592 315.216 10.648 314.032 11.928C312.848 13.208 311.52 14.6 310.048 16.104C308.576 17.576 307.024 19.048 305.392 20.52C303.76 21.96 302.112 23.272 300.448 24.456C298.816 25.64 297.232 26.568 295.696 27.24C296.016 27.56 296.352 27.928 296.704 28.344C297.088 28.728 297.488 29.16 297.904 29.64C298.992 30.824 300.288 32.136 301.792 33.576C303.296 34.984 304.832 36.376 306.4 37.752C308 39.096 309.44 40.28 310.72 41.304C311.168 41.72 311.488 42.136 311.68 42.552C311.904 42.936 312.016 43.432 312.016 44.04ZM323.24 48.744C321.768 48.744 320.712 48.328 320.072 47.496C319.432 46.664 319.112 45.448 319.112 43.848C319.112 42.376 319.384 40.456 319.928 38.088C320.504 35.688 321.256 33.016 322.184 30.072C323.144 27.096 324.216 24.04 325.4 20.904C326.584 17.736 327.816 14.632 329.096 11.592C330.376 8.52 331.624 5.704 332.84 3.144C333.416 2.024 334.024 1.256 334.664 0.839999C335.304 0.423999 336.008 0.215999 336.776 0.215999C337.512 0.215999 338.136 0.423999 338.648 0.839999C339.16 1.224 339.416 1.848 339.416 2.712C339.416 2.904 339.16 3.64 338.648 4.92C338.136 6.168 337.464 7.8 336.632 9.816C335.8 11.8 334.888 14.04 333.896 16.536C332.904 19 331.912 21.576 330.92 24.264C329.928 26.92 329.032 29.544 328.232 32.136C327.432 34.728 326.792 37.128 326.312 39.336C327.432 37.832 328.632 36.168 329.912 34.344C331.224 32.488 332.552 30.648 333.896 28.824C335.272 26.968 336.616 25.272 337.928 23.736C339.272 22.2 340.52 20.968 341.672 20.04C342.824 19.112 343.832 18.648 344.696 18.648C346.296 18.648 347.576 19.096 348.536 19.992C349.528 20.856 350.024 22.36 350.024 24.504C350.024 25.496 349.832 26.696 349.448 28.104C349.064 29.48 348.6 30.936 348.056 32.472C347.544 33.976 347.096 35.432 346.712 36.84C346.328 38.248 346.136 39.48 346.136 40.536C346.136 41.112 346.408 41.4 346.952 41.4C348.52 41.4 350.104 41.064 351.704 40.392C353.336 39.72 354.888 38.888 356.36 37.896C357.864 36.872 359.224 35.864 360.44 34.872C361.688 33.848 362.696 33 363.464 32.328C364.008 31.816 364.504 31.48 364.952 31.32C365.4 31.128 365.816 31.032 366.2 31.032C367.512 31.032 368.168 31.688 368.168 33C368.168 33.256 368.12 33.576 368.024 33.96C367.928 34.312 367.624 34.76 367.112 35.304C366.6 35.848 365.832 36.616 364.808 37.608C363.784 38.6 362.584 39.656 361.208 40.776C359.864 41.896 358.392 42.968 356.792 43.992C355.224 44.984 353.608 45.8 351.944 46.44C350.28 47.08 348.664 47.4 347.096 47.4C344.728 47.4 342.904 46.728 341.624 45.384C340.344 44.072 339.704 42.28 339.704 40.008C339.704 38.44 340.024 36.472 340.664 34.104C341.304 31.704 342.024 29.256 342.824 26.76C341.704 27.848 340.536 29.144 339.32 30.648C338.104 32.12 336.872 33.688 335.624 35.352C334.376 36.984 333.144 38.6 331.928 40.2C330.744 41.768 329.608 43.208 328.52 44.52C327.432 45.8 326.44 46.824 325.544 47.592C324.648 48.36 323.88 48.744 323.24 48.744ZM367.199 45.192C365.183 45.192 363.711 44.584 362.783 43.368C361.887 42.12 361.439 40.536 361.439 38.616C361.439 36.792 361.839 35.032 362.639 33.336C363.439 31.608 364.511 29.96 365.855 28.392C367.199 26.824 368.703 25.368 370.367 24.024C372.031 22.648 373.711 21.416 375.407 20.328C377.135 19.208 378.783 18.264 380.351 17.496C381.919 16.696 383.279 16.088 384.431 15.672C385.583 15.256 386.415 15.048 386.927 15.048C387.471 15.048 387.919 15.192 388.271 15.48C388.655 15.736 388.847 16.248 388.847 17.016C388.847 17.816 388.527 18.536 387.887 19.176C387.247 19.816 386.463 20.36 385.535 20.808C384.223 21.448 382.735 22.232 381.071 23.16C379.439 24.056 377.791 25.08 376.127 26.232C374.463 27.384 372.927 28.616 371.519 29.928C370.143 31.24 369.023 32.616 368.159 34.056C367.295 35.464 366.863 36.904 366.863 38.376C366.863 38.696 366.927 38.952 367.055 39.144C367.183 39.336 367.455 39.432 367.871 39.432C368.415 39.432 369.135 39.176 370.031 38.664C370.927 38.12 371.903 37.416 372.959 36.552C374.015 35.656 375.071 34.68 376.127 33.624C377.183 32.536 378.159 31.448 379.055 30.36C379.983 29.24 380.751 28.2 381.359 27.24C381.807 26.504 382.335 25.896 382.943 25.416C383.583 24.936 384.239 24.696 384.911 24.696C385.455 24.696 385.903 24.856 386.255 25.176C386.639 25.464 386.831 25.992 386.831 26.76C386.831 27.016 386.815 27.624 386.783 28.584C386.751 29.512 386.703 30.648 386.639 31.992C386.607 33.304 386.591 34.68 386.591 36.12C386.591 37.368 386.703 38.456 386.927 39.384C387.183 40.28 387.711 40.728 388.511 40.728C389.471 40.728 390.463 40.392 391.487 39.72C392.511 39.016 393.503 38.136 394.463 37.08C395.455 35.992 396.367 34.84 397.199 33.624C398.031 32.408 398.735 31.256 399.311 30.168C399.919 29.048 400.351 28.152 400.607 27.48C401.023 24.664 401.567 22.456 402.239 20.856C402.911 19.224 403.647 18.072 404.447 17.4C405.279 16.728 406.079 16.392 406.847 16.392C407.711 16.392 408.431 16.6 409.007 17.016C409.615 17.432 409.919 18.408 409.919 19.944C409.919 20.744 409.583 21.944 408.911 23.544C408.239 25.144 407.343 26.904 406.223 28.824C405.967 30.264 405.807 31.752 405.743 33.288C405.679 34.824 405.775 36.264 406.031 37.608C406.895 37 407.775 36.104 408.671 34.92C409.567 33.704 410.463 32.36 411.359 30.888C412.255 29.384 413.151 27.88 414.047 26.376C414.943 24.84 415.823 23.432 416.687 22.152C417.583 20.872 418.447 19.848 419.279 19.08C420.143 18.28 420.991 17.88 421.823 17.88C422.687 17.88 423.471 18.04 424.175 18.36C424.911 18.648 425.519 19.224 425.999 20.088C426.511 20.92 426.895 22.12 427.151 23.688C427.439 25.224 427.583 27.24 427.583 29.736C427.583 31.048 427.711 32.328 427.967 33.576C428.223 34.792 428.655 35.8 429.263 36.6C429.871 37.368 430.719 37.752 431.807 37.752C433.567 37.752 435.135 37.464 436.511 36.888C437.887 36.28 439.087 35.576 440.111 34.776C441.135 33.976 441.983 33.288 442.655 32.712C443.359 32.104 443.903 31.8 444.287 31.8C444.927 31.8 445.407 31.992 445.727 32.376C446.079 32.728 446.255 33.176 446.255 33.72C446.255 34.04 445.983 34.6 445.439 35.4C444.927 36.168 444.207 37.032 443.279 37.992C442.383 38.92 441.327 39.832 440.111 40.728C438.927 41.592 437.663 42.312 436.319 42.888C434.975 43.464 433.615 43.752 432.239 43.752C429.743 43.752 427.679 43.304 426.047 42.408C424.447 41.48 423.247 39.944 422.447 37.8C421.679 35.624 421.295 32.696 421.295 29.016C421.295 28.792 421.295 28.584 421.295 28.392C421.295 28.2 421.295 28.008 421.295 27.816C421.295 27.016 421.279 26.328 421.247 25.752C421.247 25.176 421.167 24.728 421.007 24.408C420.495 25.272 419.871 26.36 419.135 27.672C418.431 28.984 417.647 30.392 416.783 31.896C415.919 33.4 414.991 34.888 413.999 36.36C413.039 37.832 412.063 39.176 411.071 40.392C410.079 41.608 409.087 42.584 408.095 43.32C407.135 44.056 406.223 44.424 405.359 44.424C404.719 44.424 404.015 44.104 403.247 43.464C402.511 42.824 401.887 41.96 401.375 40.872C400.863 39.752 400.607 38.488 400.607 37.08C399.231 38.808 397.807 40.392 396.335 41.832C394.863 43.24 393.407 44.36 391.967 45.192C390.559 46.056 389.215 46.488 387.935 46.488C386.879 46.488 385.855 46.184 384.863 45.576C383.903 44.968 383.071 43.88 382.367 42.312C381.663 40.744 381.215 38.52 381.023 35.64C379.519 37.528 377.951 39.192 376.319 40.632C374.719 42.072 373.135 43.192 371.567 43.992C370.031 44.792 368.575 45.192 367.199 45.192ZM462.413 19.32C464.173 15.128 465.725 10.808 467.069 6.36C467.325 5.464 467.693 4.776 468.173 4.296C468.685 3.816 469.389 3.576 470.285 3.576C471.021 3.576 471.581 3.8 471.965 4.248C472.349 4.664 472.541 5.24 472.541 5.976C472.541 6.584 472.285 7.672 471.773 9.24C471.261 10.776 470.637 12.728 469.901 15.096C469.165 17.464 468.429 20.2 467.693 23.304C466.957 26.408 466.333 29.816 465.821 33.528C465.309 37.24 465.053 41.208 465.053 45.432C465.053 46.584 464.829 47.528 464.381 48.264C463.965 49.032 463.229 49.416 462.173 49.416C461.021 49.416 460.173 49.016 459.629 48.216C459.117 47.416 458.861 46.392 458.861 45.144C458.861 42.68 458.941 40.632 459.101 39C459.293 37.336 459.485 35.912 459.677 34.728C458.109 37.416 456.445 39.736 454.685 41.688C452.957 43.608 451.293 45.08 449.693 46.104C448.093 47.16 446.717 47.688 445.565 47.688C443.677 47.688 442.141 47.16 440.957 46.104C439.773 45.048 439.181 43.448 439.181 41.304C439.181 39.64 439.581 37.928 440.381 36.168C441.181 34.376 442.237 32.616 443.549 30.888C444.861 29.16 446.301 27.544 447.869 26.04C449.469 24.504 451.069 23.16 452.669 22.008C454.269 20.824 455.757 19.896 457.133 19.224C458.509 18.552 459.629 18.216 460.493 18.216C461.453 18.216 462.093 18.584 462.413 19.32ZM461.309 21.912C461.117 22.04 460.909 22.168 460.685 22.296C460.493 22.392 460.301 22.504 460.109 22.632C458.893 23.4 457.597 24.328 456.221 25.416C454.845 26.472 453.485 27.656 452.141 28.968C450.797 30.248 449.565 31.592 448.445 33C447.357 34.376 446.477 35.752 445.805 37.128C445.165 38.472 444.845 39.768 444.845 41.016C444.845 41.24 444.941 41.4 445.133 41.496C445.325 41.592 445.501 41.64 445.661 41.64C446.781 41.64 447.981 41.144 449.261 40.152C450.573 39.16 451.901 37.784 453.245 36.024C454.621 34.232 455.981 32.136 457.325 29.736C458.701 27.336 460.029 24.728 461.309 21.912ZM478.291 46.824C477.267 46.824 476.339 46.536 475.507 45.96C474.675 45.416 474.019 44.696 473.539 43.8C473.059 42.872 472.819 41.88 472.819 40.824C472.819 38.84 473.251 36.904 474.115 35.016C475.011 33.128 476.179 31.336 477.618 29.64C479.059 27.944 480.627 26.392 482.323 24.984C484.051 23.544 485.763 22.312 487.459 21.288C489.187 20.264 490.755 19.464 492.163 18.888C493.603 18.312 494.723 18.024 495.523 18.024C496.451 18.024 497.203 18.232 497.779 18.648C498.387 19.032 498.691 19.64 498.691 20.472C498.691 20.728 498.627 20.936 498.499 21.096C498.915 21.192 499.251 21.432 499.507 21.816C499.763 22.2 499.891 22.776 499.891 23.544C499.891 23.864 499.811 24.696 499.651 26.04C499.491 27.384 499.315 29.016 499.123 30.936C498.963 32.856 498.883 34.856 498.883 36.936C498.883 37.256 498.931 37.544 499.027 37.8C499.123 38.024 499.331 38.136 499.651 38.136C500.931 38.136 502.227 37.88 503.539 37.368C504.883 36.824 506.179 36.168 507.427 35.4C508.707 34.6 509.859 33.816 510.883 33.048C511.939 32.248 512.819 31.592 513.523 31.08C514.259 30.536 514.739 30.264 514.963 30.264C516.051 30.264 516.595 30.808 516.595 31.896C516.595 32.184 516.243 32.792 515.539 33.72C514.867 34.616 513.939 35.656 512.755 36.84C511.571 37.992 510.243 39.144 508.771 40.296C507.331 41.416 505.827 42.344 504.259 43.08C502.723 43.816 501.235 44.184 499.795 44.184C498.035 44.184 496.691 43.768 495.763 42.936C494.867 42.104 494.227 40.984 493.843 39.576C493.491 38.136 493.299 36.52 493.267 34.728C491.635 37.064 489.939 39.144 488.179 40.968C486.451 42.76 484.739 44.184 483.043 45.24C481.347 46.296 479.763 46.824 478.291 46.824ZM495.283 22.776C492.147 24.28 489.331 26.008 486.835 27.96C484.339 29.88 482.355 31.896 480.883 34.008C479.443 36.12 478.723 38.152 478.723 40.104C478.723 40.648 478.979 40.92 479.491 40.92C480.099 40.92 480.899 40.568 481.891 39.864C482.915 39.16 484.019 38.232 485.203 37.08C486.387 35.896 487.571 34.584 488.755 33.144C489.939 31.672 491.043 30.168 492.067 28.632C493.091 27.096 493.907 25.624 494.515 24.216C494.739 23.704 494.995 23.224 495.283 22.776ZM522.409 47.4C519.529 47.4 517.257 46.52 515.593 44.76C513.961 42.968 513.145 40.424 513.145 37.128C513.145 35.336 513.385 33.24 513.865 30.84C514.345 28.408 514.969 25.848 515.737 23.16C516.537 20.44 517.385 17.752 518.281 15.096C519.209 12.44 520.121 9.976 521.017 7.704C521.913 5.432 522.697 3.528 523.369 1.992C523.945 0.807999 524.761 0.215999 525.817 0.215999C526.489 0.215999 527.033 0.423999 527.449 0.839999C527.897 1.256 528.121 1.928 528.121 2.856C528.121 3.304 527.897 4.28 527.449 5.784C527.001 7.288 526.409 9.144 525.673 11.352C524.969 13.528 524.201 15.88 523.369 18.408C522.569 20.936 521.801 23.48 521.065 26.04C520.361 28.6 519.785 31.016 519.337 33.288C518.889 35.528 518.665 37.432 518.665 39C518.665 39.64 518.841 40.152 519.193 40.536C519.577 40.92 520.073 41.112 520.681 41.112C521.993 41.112 523.337 40.872 524.713 40.392C526.121 39.912 527.497 39.304 528.841 38.568C530.217 37.832 531.513 37.048 532.729 36.216C533.945 35.384 535.033 34.6 535.993 33.864C536.985 33.096 537.785 32.488 538.393 32.04C539.193 31.432 539.737 31.128 540.025 31.128C541.113 31.128 541.657 31.656 541.657 32.712C541.657 32.968 541.337 33.496 540.697 34.296C540.153 35 539.385 35.896 538.393 36.984C537.401 38.072 536.249 39.224 534.937 40.44C533.657 41.624 532.281 42.744 530.809 43.8C529.369 44.856 527.929 45.72 526.489 46.392C525.049 47.064 523.689 47.4 522.409 47.4Z" fill="#C5F467"/>
</svg>
