<svg width="486" height="59" viewBox="0 0 486 59" fill="none" xmlns="http://www.w3.org/2000/svg">
<path d="M19.208 32.808C17.352 32.808 15.528 32.584 13.736 32.136C11.976 31.688 10.312 31.112 8.744 30.408C8.04 33.288 7.432 36.44 6.92 39.864C6.792 40.824 6.6 41.704 6.344 42.504C6.088 43.272 5.688 43.896 5.144 44.376C4.6 44.856 3.8 45.096 2.744 45.096C1.752 45.096 1.096 44.712 0.776 43.944C0.456 43.176 0.296 42.232 0.296 41.112C0.296 40.76 0.424001 39.848 0.680001 38.376C0.936001 36.904 1.256 35.128 1.64 33.048C2.024 30.936 2.424 28.76 2.84 26.52C1.528 25.208 0.872 24.008 0.872 22.92C0.872 22.376 1.032 21.864 1.352 21.384C1.704 20.872 2.376 20.616 3.368 20.616C3.496 20.616 3.672 20.664 3.896 20.76C4.216 18.968 4.488 17.368 4.712 15.96C4.968 14.52 5.112 13.48 5.144 12.84C5.208 11.624 5.4 10.728 5.72 10.152C6.04 9.544 6.44 9.144 6.92 8.952C7.432 8.728 7.944 8.616 8.456 8.616C9.128 8.616 9.64 8.76 9.992 9.048C10.344 9.336 10.52 9.976 10.52 10.968C10.52 11.928 10.504 12.808 10.472 13.608C12.04 10.92 13.672 9.032 15.368 7.944C17.064 6.824 18.92 6.264 20.936 6.264C22.92 6.264 24.648 6.808 26.12 7.896C27.592 8.984 28.728 10.552 29.528 12.6C30.36 14.616 30.776 17.048 30.776 19.896C30.776 24.248 29.768 27.496 27.752 29.64C25.768 31.752 22.92 32.808 19.208 32.808ZM10.376 24.744C11.56 25.384 12.824 25.944 14.168 26.424C15.512 26.872 16.888 27.096 18.296 27.096C20.568 27.096 22.232 26.504 23.288 25.32C24.376 24.136 24.92 22.184 24.92 19.464C24.92 14.632 23.464 12.216 20.552 12.216C18.696 12.216 16.888 13.256 15.128 15.336C13.4 17.416 11.816 20.552 10.376 24.744ZM33.3271 47.112C32.5271 47.112 31.8391 46.824 31.2631 46.248C30.7191 45.672 30.4471 44.84 30.4471 43.752C30.4471 43.272 30.5111 42.488 30.6391 41.4C30.7991 40.28 30.9911 39 31.2151 37.56C31.4711 36.12 31.7111 34.616 31.9351 33.048C32.1911 31.48 32.3991 29.992 32.5591 28.584C32.7511 27.176 32.8791 25.976 32.9431 24.984C33.0071 23.768 33.3271 22.904 33.9031 22.392C34.4791 21.848 35.1671 21.576 35.9671 21.576C36.6071 21.576 37.1831 21.736 37.6951 22.056C38.2391 22.344 38.5751 22.968 38.7031 23.928C38.8631 24.856 38.8791 26.2 38.7511 27.96C40.1591 25.4 41.5831 23.112 43.0231 21.096C44.4951 19.08 46.0311 17.48 47.6311 16.296C50.2871 14.28 52.6871 13.272 54.8311 13.272C56.0471 13.272 56.8471 13.544 57.2311 14.088C57.6151 14.632 57.8071 15.192 57.8071 15.768C57.8071 16.152 57.7111 16.504 57.5191 16.824C57.3591 17.144 57.0071 17.48 56.4631 17.832C55.9191 18.184 55.0871 18.648 53.9671 19.224C52.4631 19.992 50.9751 21 49.5031 22.248C48.0631 23.496 46.6231 25.096 45.1831 27.048C43.7431 29 42.2871 31.4 40.8151 34.248C39.3431 37.096 37.8231 40.488 36.2551 44.424C35.9671 45.512 35.5511 46.232 35.0071 46.584C34.4951 46.936 33.9351 47.112 33.3271 47.112ZM53.4939 45.72C52.5979 45.72 51.7979 45.416 51.0939 44.808C50.4219 44.2 50.0859 43.208 50.0859 41.832C50.0859 41.096 50.1819 40.056 50.3739 38.712C50.5979 37.368 50.8859 35.912 51.2379 34.344C51.5899 32.744 51.9739 31.16 52.3899 29.592C52.8379 28.024 53.2699 26.632 53.6859 25.416C54.1019 24.168 54.4699 23.24 54.7899 22.632C55.2059 21.896 55.5899 21.448 55.9419 21.288C56.3259 21.096 56.6939 21 57.0459 21C57.6859 21 58.2779 21.192 58.8219 21.576C59.3979 21.96 59.6859 22.808 59.6859 24.12C59.6859 24.632 59.5899 25.464 59.3979 26.616C59.2059 27.736 58.9659 29.048 58.6779 30.552C58.3899 32.056 58.0699 33.608 57.7179 35.208C57.3979 36.808 57.0779 38.328 56.7579 39.768C56.4699 41.176 56.2299 42.36 56.0379 43.32C55.8779 44.12 55.5419 44.712 55.0299 45.096C54.5499 45.512 54.0379 45.72 53.4939 45.72ZM59.0139 16.248C57.9579 16.248 56.9819 15.944 56.0859 15.336C55.1899 14.696 54.7419 13.72 54.7419 12.408C54.7419 11.32 55.0139 10.44 55.5579 9.768C56.1019 9.096 56.7419 8.616 57.4779 8.328C58.2459 8.008 58.9179 7.848 59.4939 7.848C60.0699 7.848 60.7099 7.976 61.4139 8.232C62.1179 8.456 62.7259 8.888 63.2379 9.528C63.7819 10.136 64.0539 11.016 64.0539 12.168C64.0539 12.936 63.7819 13.64 63.2379 14.28C62.6939 14.888 62.0219 15.368 61.2219 15.72C60.4539 16.072 59.7179 16.248 59.0139 16.248ZM69.3211 58.2C67.5291 58.2 65.8971 58.088 64.4251 57.864C62.9531 57.672 61.5131 57.352 60.1051 56.904C58.6971 56.456 57.1771 55.864 55.5451 55.128C54.8731 54.808 54.3131 54.472 53.8651 54.12C53.4171 53.768 53.1931 53.24 53.1931 52.536C53.1931 51.512 53.5131 50.728 54.1531 50.184C54.7611 49.672 55.6091 49.416 56.6971 49.416C57.2731 49.416 58.0091 49.608 58.9051 49.992C59.8011 50.408 60.8251 50.872 61.9771 51.384C63.1611 51.928 64.4731 52.392 65.9131 52.776C67.3531 53.192 68.9051 53.4 70.5691 53.4C72.2651 53.4 73.8491 52.696 75.3211 51.288C76.7931 49.88 77.9771 47.896 78.8731 45.336C79.8011 42.808 80.2651 39.816 80.2651 36.36C80.2651 35.56 80.2491 34.696 80.2171 33.768C80.1851 32.808 80.1531 31.8 80.1211 30.744C78.9691 32.92 77.7211 34.952 76.3771 36.84C75.0331 38.728 73.6411 40.264 72.2011 41.448C70.7931 42.6 69.3691 43.176 67.9291 43.176C66.1691 43.176 64.8891 42.76 64.0891 41.928C63.3211 41.064 62.9371 39.704 62.9371 37.848C62.9371 36.28 63.0491 34.568 63.2731 32.712C63.5291 30.824 63.8651 28.92 64.2811 27C64.6971 25.08 65.1771 23.256 65.7211 21.528C66.2971 19.768 66.9051 18.248 67.5451 16.968C68.0251 16.04 68.7611 15.576 69.7531 15.576C70.3931 15.576 71.0331 15.88 71.6731 16.488C72.3451 17.096 72.6811 17.912 72.6811 18.936C72.6811 19.512 72.5371 20.344 72.2491 21.432C71.9611 22.52 71.6091 23.752 71.1931 25.128C70.8091 26.472 70.4091 27.896 69.9931 29.4C69.5771 30.872 69.2251 32.328 68.9371 33.768C68.6491 35.176 68.5051 36.456 68.5051 37.608C68.5051 37.736 68.6011 37.8 68.7931 37.8C69.1771 37.8 69.6891 37.48 70.3291 36.84C71.0011 36.168 71.7371 35.304 72.5371 34.248C73.3691 33.16 74.2011 31.976 75.0331 30.696C75.8971 29.384 76.7291 28.088 77.5291 26.808C78.3291 25.528 79.0491 24.36 79.6891 23.304C79.5931 22.792 79.5291 22.344 79.4971 21.96C79.4971 21.544 79.4971 21.192 79.4971 20.904C79.4971 19.592 79.7211 18.504 80.1691 17.64C80.6491 16.776 81.5771 16.344 82.9531 16.344C83.8491 16.344 84.5371 16.68 85.0171 17.352C85.4971 17.992 85.7371 18.904 85.7371 20.088C85.7371 20.6 85.6571 21.192 85.4971 21.864C85.3371 22.504 85.0171 23.528 84.5371 24.936L85.0651 23.448C85.3531 26.328 85.5931 28.888 85.7851 31.128C86.0091 33.368 86.1211 35.592 86.1211 37.8C86.1211 41.96 85.4171 45.56 84.0091 48.6C82.6331 51.672 80.6811 54.04 78.1531 55.704C75.6571 57.368 72.7131 58.2 69.3211 58.2ZM95.2003 45.192C93.1843 45.192 91.7123 44.584 90.7843 43.368C89.8883 42.12 89.4403 40.536 89.4403 38.616C89.4403 36.792 89.8403 35.032 90.6403 33.336C91.4403 31.608 92.5123 29.96 93.8563 28.392C95.2003 26.824 96.7043 25.368 98.3683 24.024C100.032 22.648 101.712 21.416 103.408 20.328C105.136 19.208 106.784 18.264 108.352 17.496C109.92 16.696 111.28 16.088 112.432 15.672C113.584 15.256 114.416 15.048 114.928 15.048C115.472 15.048 115.92 15.192 116.272 15.48C116.656 15.736 116.848 16.248 116.848 17.016C116.848 17.816 116.528 18.536 115.888 19.176C115.248 19.816 114.464 20.36 113.536 20.808C112.224 21.448 110.736 22.232 109.072 23.16C107.44 24.056 105.792 25.08 104.128 26.232C102.464 27.384 100.928 28.616 99.5203 29.928C98.1443 31.24 97.0243 32.616 96.1603 34.056C95.2963 35.464 94.8643 36.904 94.8643 38.376C94.8643 38.696 94.9283 38.952 95.0563 39.144C95.1843 39.336 95.4563 39.432 95.8723 39.432C96.4163 39.432 97.1363 39.176 98.0323 38.664C98.9283 38.12 99.9043 37.416 100.96 36.552C102.016 35.656 103.072 34.68 104.128 33.624C105.184 32.536 106.16 31.448 107.056 30.36C107.984 29.24 108.752 28.2 109.36 27.24C109.808 26.504 110.336 25.896 110.944 25.416C111.584 24.936 112.24 24.696 112.912 24.696C113.456 24.696 113.904 24.856 114.256 25.176C114.64 25.464 114.832 25.992 114.832 26.76C114.832 27.016 114.816 27.624 114.784 28.584C114.752 29.512 114.704 30.648 114.64 31.992C114.608 33.304 114.592 34.68 114.592 36.12C114.592 37.368 114.704 38.456 114.928 39.384C115.184 40.28 115.712 40.728 116.512 40.728C117.472 40.728 118.464 40.392 119.488 39.72C120.512 39.016 121.504 38.136 122.464 37.08C123.456 35.992 124.368 34.84 125.2 33.624C126.032 32.408 126.736 31.256 127.312 30.168C127.92 29.048 128.352 28.152 128.608 27.48C129.024 24.664 129.568 22.456 130.24 20.856C130.912 19.224 131.648 18.072 132.448 17.4C133.28 16.728 134.08 16.392 134.848 16.392C135.712 16.392 136.432 16.6 137.008 17.016C137.616 17.432 137.92 18.408 137.92 19.944C137.92 20.744 137.584 21.944 136.912 23.544C136.24 25.144 135.344 26.904 134.224 28.824C133.968 30.264 133.808 31.752 133.744 33.288C133.68 34.824 133.776 36.264 134.032 37.608C134.896 37 135.776 36.104 136.672 34.92C137.568 33.704 138.464 32.36 139.36 30.888C140.256 29.384 141.152 27.88 142.048 26.376C142.944 24.84 143.824 23.432 144.688 22.152C145.584 20.872 146.448 19.848 147.28 19.08C148.144 18.28 148.992 17.88 149.824 17.88C150.688 17.88 151.472 18.04 152.176 18.36C152.912 18.648 153.52 19.224 154 20.088C154.512 20.92 154.896 22.12 155.152 23.688C155.44 25.224 155.584 27.24 155.584 29.736C155.584 31.048 155.712 32.328 155.968 33.576C156.224 34.792 156.656 35.8 157.264 36.6C157.872 37.368 158.72 37.752 159.808 37.752C161.568 37.752 163.136 37.464 164.512 36.888C165.888 36.28 167.088 35.576 168.112 34.776C169.136 33.976 169.984 33.288 170.656 32.712C171.36 32.104 171.904 31.8 172.288 31.8C172.928 31.8 173.408 31.992 173.728 32.376C174.08 32.728 174.256 33.176 174.256 33.72C174.256 34.04 173.984 34.6 173.44 35.4C172.928 36.168 172.208 37.032 171.28 37.992C170.384 38.92 169.328 39.832 168.112 40.728C166.928 41.592 165.664 42.312 164.32 42.888C162.976 43.464 161.616 43.752 160.24 43.752C157.744 43.752 155.68 43.304 154.048 42.408C152.448 41.48 151.248 39.944 150.448 37.8C149.68 35.624 149.296 32.696 149.296 29.016C149.296 28.792 149.296 28.584 149.296 28.392C149.296 28.2 149.296 28.008 149.296 27.816C149.296 27.016 149.28 26.328 149.248 25.752C149.248 25.176 149.168 24.728 149.008 24.408C148.496 25.272 147.872 26.36 147.136 27.672C146.432 28.984 145.648 30.392 144.784 31.896C143.92 33.4 142.992 34.888 142 36.36C141.04 37.832 140.064 39.176 139.072 40.392C138.08 41.608 137.088 42.584 136.096 43.32C135.136 44.056 134.224 44.424 133.36 44.424C132.72 44.424 132.016 44.104 131.248 43.464C130.512 42.824 129.888 41.96 129.376 40.872C128.864 39.752 128.608 38.488 128.608 37.08C127.232 38.808 125.808 40.392 124.336 41.832C122.864 43.24 121.408 44.36 119.968 45.192C118.56 46.056 117.216 46.488 115.936 46.488C114.88 46.488 113.856 46.184 112.864 45.576C111.904 44.968 111.072 43.88 110.368 42.312C109.664 40.744 109.216 38.52 109.024 35.64C107.52 37.528 105.952 39.192 104.32 40.632C102.72 42.072 101.136 43.192 99.5683 43.992C98.0323 44.792 96.5763 45.192 95.2003 45.192ZM171.166 47.448C169.79 47.448 168.814 47.256 168.238 46.872C167.694 46.488 167.422 45.928 167.422 45.192C167.422 44.552 167.646 44.008 168.094 43.56C168.542 43.08 169.534 42.6 171.07 42.12C172.862 41.576 174.558 40.952 176.158 40.248C177.79 39.512 179.118 38.712 180.142 37.848C181.198 36.984 181.726 36.072 181.726 35.112C181.726 34.472 181.502 34.008 181.054 33.72C180.638 33.432 180.142 33.288 179.566 33.288C179.086 33.288 178.382 33.368 177.454 33.528C176.558 33.656 175.566 33.832 174.478 34.056C173.39 34.248 172.334 34.424 171.31 34.584C170.318 34.712 169.47 34.776 168.766 34.776C167.102 34.776 165.87 34.408 165.07 33.672C164.27 32.904 163.87 31.928 163.87 30.744C163.87 30.104 164.206 29.224 164.878 28.104C165.55 26.984 166.446 25.752 167.566 24.408C168.686 23.064 169.934 21.72 171.31 20.376C172.686 19.032 174.078 17.8 175.486 16.68C176.926 15.528 178.286 14.616 179.566 13.944C180.846 13.24 181.934 12.888 182.83 12.888C183.854 12.888 184.67 13.208 185.278 13.848C185.918 14.488 186.238 15.352 186.238 16.44C186.238 16.952 186.19 17.512 186.094 18.12C185.998 18.696 185.758 19.224 185.374 19.704C184.99 20.152 184.398 20.472 183.598 20.664C182.798 20.856 181.71 20.824 180.334 20.568C179.246 21.368 178.11 22.248 176.926 23.208C175.774 24.136 174.686 25.112 173.662 26.136C172.638 27.128 171.79 28.104 171.118 29.064C172.302 28.68 173.646 28.376 175.15 28.152C176.654 27.896 178.174 27.768 179.71 27.768C181.566 27.768 183.07 28.104 184.222 28.776C185.406 29.416 186.27 30.28 186.814 31.368C187.39 32.456 187.678 33.656 187.678 34.968C187.678 36.44 187.198 37.912 186.238 39.384C185.278 40.856 183.998 42.2 182.398 43.416C180.798 44.632 179.022 45.608 177.07 46.344C175.118 47.08 173.15 47.448 171.166 47.448ZM191.57 48.744C190.098 48.744 189.042 48.328 188.402 47.496C187.762 46.664 187.442 45.448 187.442 43.848C187.442 42.376 187.714 40.456 188.258 38.088C188.834 35.688 189.586 33.016 190.514 30.072C191.474 27.096 192.546 24.04 193.73 20.904C194.914 17.736 196.146 14.632 197.426 11.592C198.706 8.52 199.954 5.704 201.17 3.144C201.746 2.024 202.354 1.256 202.994 0.839999C203.634 0.423999 204.338 0.215999 205.106 0.215999C205.842 0.215999 206.466 0.423999 206.978 0.839999C207.49 1.224 207.746 1.848 207.746 2.712C207.746 2.904 207.49 3.64 206.978 4.92C206.466 6.168 205.794 7.8 204.962 9.816C204.13 11.8 203.218 14.04 202.226 16.536C201.234 19 200.242 21.576 199.25 24.264C198.258 26.92 197.362 29.544 196.562 32.136C195.762 34.728 195.122 37.128 194.642 39.336C195.762 37.832 196.962 36.168 198.242 34.344C199.554 32.488 200.882 30.648 202.226 28.824C203.602 26.968 204.946 25.272 206.258 23.736C207.602 22.2 208.85 20.968 210.002 20.04C211.154 19.112 212.162 18.648 213.026 18.648C214.626 18.648 215.906 19.096 216.866 19.992C217.858 20.856 218.354 22.36 218.354 24.504C218.354 25.496 218.162 26.696 217.778 28.104C217.394 29.48 216.93 30.936 216.386 32.472C215.874 33.976 215.426 35.432 215.042 36.84C214.658 38.248 214.466 39.48 214.466 40.536C214.466 41.112 214.738 41.4 215.282 41.4C216.85 41.4 218.434 41.064 220.034 40.392C221.666 39.72 223.218 38.888 224.69 37.896C226.194 36.872 227.554 35.864 228.77 34.872C230.018 33.848 231.026 33 231.794 32.328C232.338 31.816 232.834 31.48 233.282 31.32C233.73 31.128 234.146 31.032 234.53 31.032C235.842 31.032 236.498 31.688 236.498 33C236.498 33.256 236.45 33.576 236.354 33.96C236.258 34.312 235.954 34.76 235.442 35.304C234.93 35.848 234.162 36.616 233.138 37.608C232.114 38.6 230.914 39.656 229.538 40.776C228.194 41.896 226.722 42.968 225.122 43.992C223.554 44.984 221.938 45.8 220.274 46.44C218.61 47.08 216.994 47.4 215.426 47.4C213.058 47.4 211.234 46.728 209.954 45.384C208.674 44.072 208.034 42.28 208.034 40.008C208.034 38.44 208.354 36.472 208.994 34.104C209.634 31.704 210.354 29.256 211.154 26.76C210.034 27.848 208.866 29.144 207.65 30.648C206.434 32.12 205.202 33.688 203.954 35.352C202.706 36.984 201.474 38.6 200.258 40.2C199.074 41.768 197.938 43.208 196.85 44.52C195.762 45.8 194.77 46.824 193.874 47.592C192.978 48.36 192.21 48.744 191.57 48.744ZM277.456 44.04C277.456 44.936 277.152 45.592 276.544 46.008C275.936 46.424 275.136 46.648 274.144 46.68C273.024 46.68 271.744 46.232 270.304 45.336C268.896 44.472 267.408 43.304 265.84 41.832C264.272 40.36 262.736 38.728 261.232 36.936C259.728 35.112 258.336 33.288 257.056 31.464C256.224 34.888 255.52 37.608 254.944 39.624C254.368 41.608 253.792 43.032 253.216 43.896C252.672 44.76 252.016 45.192 251.248 45.192C250.128 45.192 249.376 44.712 248.992 43.752C248.608 42.76 248.416 41.576 248.416 40.2C248.416 39.24 248.48 38.264 248.608 37.272C248.768 36.248 249.008 35.048 249.328 33.672C249.648 32.264 250.08 30.52 250.624 28.44C249.92 27.768 249.568 27.016 249.568 26.184C249.568 25.576 249.728 24.984 250.048 24.408C250.4 23.8 251.056 23.304 252.016 22.92C252.912 19.976 253.68 17.576 254.32 15.72C254.96 13.832 255.536 12.376 256.048 11.352C256.56 10.328 257.024 9.624 257.44 9.24C257.888 8.856 258.352 8.664 258.832 8.664C259.728 8.664 260.416 8.92 260.896 9.432C261.376 9.944 261.616 10.84 261.616 12.12C261.616 12.6 261.472 13.576 261.184 15.048C260.928 16.488 260.432 18.616 259.696 21.432C262.512 19.256 265.104 17.112 267.472 15C269.84 12.888 271.904 10.968 273.664 9.24C275.456 7.512 276.912 6.136 278.032 5.112C279.152 4.088 279.872 3.576 280.192 3.576C281.12 3.576 281.856 3.88 282.4 4.488C282.976 5.064 283.264 5.72 283.264 6.456C283.264 7.192 282.944 7.96 282.304 8.76C281.6 9.592 280.656 10.648 279.472 11.928C278.288 13.208 276.96 14.6 275.488 16.104C274.016 17.576 272.464 19.048 270.832 20.52C269.2 21.96 267.552 23.272 265.888 24.456C264.256 25.64 262.672 26.568 261.136 27.24C261.456 27.56 261.792 27.928 262.144 28.344C262.528 28.728 262.928 29.16 263.344 29.64C264.432 30.824 265.728 32.136 267.232 33.576C268.736 34.984 270.272 36.376 271.84 37.752C273.44 39.096 274.88 40.28 276.16 41.304C276.608 41.72 276.928 42.136 277.12 42.552C277.344 42.936 277.456 43.432 277.456 44.04ZM284.36 48.744C282.888 48.744 281.832 48.328 281.192 47.496C280.552 46.664 280.232 45.448 280.232 43.848C280.232 42.376 280.504 40.456 281.048 38.088C281.624 35.688 282.376 33.016 283.304 30.072C284.264 27.096 285.336 24.04 286.52 20.904C287.704 17.736 288.936 14.632 290.216 11.592C291.496 8.52 292.744 5.704 293.96 3.144C294.536 2.024 295.144 1.256 295.784 0.839999C296.424 0.423999 297.128 0.215999 297.896 0.215999C298.632 0.215999 299.256 0.423999 299.768 0.839999C300.28 1.224 300.536 1.848 300.536 2.712C300.536 2.904 300.28 3.64 299.768 4.92C299.256 6.168 298.584 7.8 297.752 9.816C296.92 11.8 296.008 14.04 295.016 16.536C294.024 19 293.032 21.576 292.04 24.264C291.048 26.92 290.152 29.544 289.352 32.136C288.552 34.728 287.912 37.128 287.432 39.336C288.552 37.832 289.752 36.168 291.032 34.344C292.344 32.488 293.672 30.648 295.016 28.824C296.392 26.968 297.736 25.272 299.048 23.736C300.392 22.2 301.64 20.968 302.792 20.04C303.944 19.112 304.952 18.648 305.816 18.648C307.416 18.648 308.696 19.096 309.656 19.992C310.648 20.856 311.144 22.36 311.144 24.504C311.144 25.496 310.952 26.696 310.568 28.104C310.184 29.48 309.72 30.936 309.176 32.472C308.664 33.976 308.216 35.432 307.832 36.84C307.448 38.248 307.256 39.48 307.256 40.536C307.256 41.112 307.528 41.4 308.072 41.4C309.64 41.4 311.224 41.064 312.824 40.392C314.456 39.72 316.008 38.888 317.48 37.896C318.984 36.872 320.344 35.864 321.56 34.872C322.808 33.848 323.816 33 324.584 32.328C325.128 31.816 325.624 31.48 326.072 31.32C326.52 31.128 326.936 31.032 327.32 31.032C328.632 31.032 329.288 31.688 329.288 33C329.288 33.256 329.24 33.576 329.144 33.96C329.048 34.312 328.744 34.76 328.232 35.304C327.72 35.848 326.952 36.616 325.928 37.608C324.904 38.6 323.704 39.656 322.328 40.776C320.984 41.896 319.512 42.968 317.912 43.992C316.344 44.984 314.728 45.8 313.064 46.44C311.4 47.08 309.784 47.4 308.216 47.4C305.848 47.4 304.024 46.728 302.744 45.384C301.464 44.072 300.824 42.28 300.824 40.008C300.824 38.44 301.144 36.472 301.784 34.104C302.424 31.704 303.144 29.256 303.944 26.76C302.824 27.848 301.656 29.144 300.44 30.648C299.224 32.12 297.992 33.688 296.744 35.352C295.496 36.984 294.264 38.6 293.048 40.2C291.864 41.768 290.728 43.208 289.64 44.52C288.552 45.8 287.56 46.824 286.664 47.592C285.768 48.36 285 48.744 284.36 48.744ZM323.999 45.192C321.983 45.192 320.511 44.584 319.583 43.368C318.687 42.12 318.239 40.536 318.239 38.616C318.239 36.792 318.639 35.032 319.439 33.336C320.239 31.608 321.311 29.96 322.655 28.392C323.999 26.824 325.503 25.368 327.167 24.024C328.831 22.648 330.511 21.416 332.207 20.328C333.935 19.208 335.583 18.264 337.151 17.496C338.719 16.696 340.079 16.088 341.231 15.672C342.383 15.256 343.215 15.048 343.727 15.048C344.271 15.048 344.719 15.192 345.071 15.48C345.455 15.736 345.647 16.248 345.647 17.016C345.647 17.816 345.327 18.536 344.687 19.176C344.047 19.816 343.263 20.36 342.335 20.808C341.023 21.448 339.535 22.232 337.871 23.16C336.239 24.056 334.591 25.08 332.927 26.232C331.263 27.384 329.727 28.616 328.319 29.928C326.943 31.24 325.823 32.616 324.959 34.056C324.095 35.464 323.663 36.904 323.663 38.376C323.663 38.696 323.727 38.952 323.855 39.144C323.983 39.336 324.255 39.432 324.671 39.432C325.215 39.432 325.935 39.176 326.831 38.664C327.727 38.12 328.703 37.416 329.759 36.552C330.815 35.656 331.871 34.68 332.927 33.624C333.983 32.536 334.959 31.448 335.855 30.36C336.783 29.24 337.551 28.2 338.159 27.24C338.607 26.504 339.135 25.896 339.743 25.416C340.383 24.936 341.039 24.696 341.711 24.696C342.255 24.696 342.703 24.856 343.055 25.176C343.439 25.464 343.631 25.992 343.631 26.76C343.631 27.016 343.615 27.624 343.583 28.584C343.551 29.512 343.503 30.648 343.439 31.992C343.407 33.304 343.391 34.68 343.391 36.12C343.391 37.368 343.503 38.456 343.727 39.384C343.983 40.28 344.511 40.728 345.311 40.728C346.271 40.728 347.263 40.392 348.287 39.72C349.311 39.016 350.303 38.136 351.263 37.08C352.255 35.992 353.167 34.84 353.999 33.624C354.831 32.408 355.535 31.256 356.111 30.168C356.719 29.048 357.151 28.152 357.407 27.48C357.823 24.664 358.367 22.456 359.039 20.856C359.711 19.224 360.447 18.072 361.247 17.4C362.079 16.728 362.879 16.392 363.647 16.392C364.511 16.392 365.231 16.6 365.807 17.016C366.415 17.432 366.719 18.408 366.719 19.944C366.719 20.744 366.383 21.944 365.711 23.544C365.039 25.144 364.143 26.904 363.023 28.824C362.767 30.264 362.607 31.752 362.543 33.288C362.479 34.824 362.575 36.264 362.831 37.608C363.695 37 364.575 36.104 365.471 34.92C366.367 33.704 367.263 32.36 368.159 30.888C369.055 29.384 369.951 27.88 370.847 26.376C371.743 24.84 372.623 23.432 373.487 22.152C374.383 20.872 375.247 19.848 376.079 19.08C376.943 18.28 377.791 17.88 378.623 17.88C379.487 17.88 380.271 18.04 380.975 18.36C381.711 18.648 382.319 19.224 382.799 20.088C383.311 20.92 383.695 22.12 383.951 23.688C384.239 25.224 384.383 27.24 384.383 29.736C384.383 31.048 384.511 32.328 384.767 33.576C385.023 34.792 385.455 35.8 386.063 36.6C386.671 37.368 387.519 37.752 388.607 37.752C390.367 37.752 391.935 37.464 393.311 36.888C394.687 36.28 395.887 35.576 396.911 34.776C397.935 33.976 398.783 33.288 399.455 32.712C400.159 32.104 400.703 31.8 401.087 31.8C401.727 31.8 402.207 31.992 402.527 32.376C402.879 32.728 403.055 33.176 403.055 33.72C403.055 34.04 402.783 34.6 402.239 35.4C401.727 36.168 401.007 37.032 400.079 37.992C399.183 38.92 398.127 39.832 396.911 40.728C395.727 41.592 394.463 42.312 393.119 42.888C391.775 43.464 390.415 43.752 389.039 43.752C386.543 43.752 384.479 43.304 382.847 42.408C381.247 41.48 380.047 39.944 379.247 37.8C378.479 35.624 378.095 32.696 378.095 29.016C378.095 28.792 378.095 28.584 378.095 28.392C378.095 28.2 378.095 28.008 378.095 27.816C378.095 27.016 378.079 26.328 378.047 25.752C378.047 25.176 377.967 24.728 377.807 24.408C377.295 25.272 376.671 26.36 375.935 27.672C375.231 28.984 374.447 30.392 373.583 31.896C372.719 33.4 371.791 34.888 370.799 36.36C369.839 37.832 368.863 39.176 367.871 40.392C366.879 41.608 365.887 42.584 364.895 43.32C363.935 44.056 363.023 44.424 362.159 44.424C361.519 44.424 360.815 44.104 360.047 43.464C359.311 42.824 358.687 41.96 358.175 40.872C357.663 39.752 357.407 38.488 357.407 37.08C356.031 38.808 354.607 40.392 353.135 41.832C351.663 43.24 350.207 44.36 348.767 45.192C347.359 46.056 346.015 46.488 344.735 46.488C343.679 46.488 342.655 46.184 341.663 45.576C340.703 44.968 339.871 43.88 339.167 42.312C338.463 40.744 338.015 38.52 337.823 35.64C336.319 37.528 334.751 39.192 333.119 40.632C331.519 42.072 329.935 43.192 328.367 43.992C326.831 44.792 325.375 45.192 323.999 45.192ZM414.893 19.32C416.653 15.128 418.205 10.808 419.549 6.36C419.805 5.464 420.173 4.776 420.653 4.296C421.165 3.816 421.869 3.576 422.765 3.576C423.501 3.576 424.061 3.8 424.445 4.248C424.829 4.664 425.021 5.24 425.021 5.976C425.021 6.584 424.765 7.672 424.253 9.24C423.741 10.776 423.117 12.728 422.381 15.096C421.645 17.464 420.909 20.2 420.173 23.304C419.437 26.408 418.813 29.816 418.301 33.528C417.789 37.24 417.533 41.208 417.533 45.432C417.533 46.584 417.309 47.528 416.861 48.264C416.445 49.032 415.709 49.416 414.653 49.416C413.501 49.416 412.653 49.016 412.109 48.216C411.597 47.416 411.341 46.392 411.341 45.144C411.341 42.68 411.421 40.632 411.581 39C411.773 37.336 411.965 35.912 412.157 34.728C410.589 37.416 408.925 39.736 407.165 41.688C405.437 43.608 403.773 45.08 402.173 46.104C400.573 47.16 399.197 47.688 398.045 47.688C396.157 47.688 394.621 47.16 393.437 46.104C392.253 45.048 391.661 43.448 391.661 41.304C391.661 39.64 392.061 37.928 392.861 36.168C393.661 34.376 394.717 32.616 396.029 30.888C397.341 29.16 398.781 27.544 400.349 26.04C401.949 24.504 403.549 23.16 405.149 22.008C406.749 20.824 408.237 19.896 409.613 19.224C410.989 18.552 412.109 18.216 412.973 18.216C413.933 18.216 414.573 18.584 414.893 19.32ZM413.789 21.912C413.597 22.04 413.389 22.168 413.165 22.296C412.973 22.392 412.781 22.504 412.589 22.632C411.373 23.4 410.077 24.328 408.701 25.416C407.325 26.472 405.965 27.656 404.621 28.968C403.277 30.248 402.045 31.592 400.925 33C399.837 34.376 398.957 35.752 398.285 37.128C397.645 38.472 397.325 39.768 397.325 41.016C397.325 41.24 397.421 41.4 397.613 41.496C397.805 41.592 397.981 41.64 398.141 41.64C399.261 41.64 400.461 41.144 401.741 40.152C403.053 39.16 404.381 37.784 405.725 36.024C407.101 34.232 408.461 32.136 409.805 29.736C411.181 27.336 412.509 24.728 413.789 21.912ZM426.451 46.824C425.427 46.824 424.499 46.536 423.667 45.96C422.835 45.416 422.179 44.696 421.699 43.8C421.219 42.872 420.979 41.88 420.979 40.824C420.979 38.84 421.411 36.904 422.275 35.016C423.171 33.128 424.339 31.336 425.779 29.64C427.219 27.944 428.787 26.392 430.483 24.984C432.211 23.544 433.923 22.312 435.619 21.288C437.347 20.264 438.915 19.464 440.323 18.888C441.763 18.312 442.883 18.024 443.683 18.024C444.611 18.024 445.363 18.232 445.939 18.648C446.547 19.032 446.851 19.64 446.851 20.472C446.851 20.728 446.787 20.936 446.659 21.096C447.075 21.192 447.411 21.432 447.667 21.816C447.923 22.2 448.051 22.776 448.051 23.544C448.051 23.864 447.971 24.696 447.811 26.04C447.651 27.384 447.475 29.016 447.283 30.936C447.123 32.856 447.043 34.856 447.043 36.936C447.043 37.256 447.091 37.544 447.187 37.8C447.283 38.024 447.491 38.136 447.811 38.136C449.091 38.136 450.387 37.88 451.699 37.368C453.043 36.824 454.339 36.168 455.587 35.4C456.867 34.6 458.019 33.816 459.043 33.048C460.099 32.248 460.979 31.592 461.683 31.08C462.419 30.536 462.899 30.264 463.123 30.264C464.211 30.264 464.755 30.808 464.755 31.896C464.755 32.184 464.403 32.792 463.699 33.72C463.027 34.616 462.099 35.656 460.915 36.84C459.731 37.992 458.403 39.144 456.931 40.296C455.491 41.416 453.987 42.344 452.419 43.08C450.883 43.816 449.395 44.184 447.955 44.184C446.195 44.184 444.851 43.768 443.923 42.936C443.027 42.104 442.387 40.984 442.003 39.576C441.651 38.136 441.459 36.52 441.427 34.728C439.795 37.064 438.099 39.144 436.339 40.968C434.611 42.76 432.899 44.184 431.203 45.24C429.507 46.296 427.923 46.824 426.451 46.824ZM443.443 22.776C440.307 24.28 437.491 26.008 434.995 27.96C432.499 29.88 430.515 31.896 429.043 34.008C427.603 36.12 426.883 38.152 426.883 40.104C426.883 40.648 427.139 40.92 427.651 40.92C428.259 40.92 429.059 40.568 430.051 39.864C431.075 39.16 432.179 38.232 433.363 37.08C434.547 35.896 435.731 34.584 436.915 33.144C438.099 31.672 439.203 30.168 440.227 28.632C441.251 27.096 442.067 25.624 442.675 24.216C442.899 23.704 443.155 23.224 443.443 22.776ZM466.249 47.4C463.369 47.4 461.097 46.52 459.433 44.76C457.801 42.968 456.985 40.424 456.985 37.128C456.985 35.336 457.225 33.24 457.705 30.84C458.185 28.408 458.809 25.848 459.577 23.16C460.377 20.44 461.225 17.752 462.121 15.096C463.049 12.44 463.961 9.976 464.857 7.704C465.753 5.432 466.537 3.528 467.209 1.992C467.785 0.807999 468.601 0.215999 469.657 0.215999C470.329 0.215999 470.873 0.423999 471.289 0.839999C471.737 1.256 471.961 1.928 471.961 2.856C471.961 3.304 471.737 4.28 471.289 5.784C470.841 7.288 470.249 9.144 469.513 11.352C468.809 13.528 468.041 15.88 467.209 18.408C466.409 20.936 465.641 23.48 464.905 26.04C464.201 28.6 463.625 31.016 463.177 33.288C462.729 35.528 462.505 37.432 462.505 39C462.505 39.64 462.681 40.152 463.033 40.536C463.417 40.92 463.913 41.112 464.521 41.112C465.833 41.112 467.177 40.872 468.553 40.392C469.961 39.912 471.337 39.304 472.681 38.568C474.057 37.832 475.353 37.048 476.569 36.216C477.785 35.384 478.873 34.6 479.833 33.864C480.825 33.096 481.625 32.488 482.233 32.04C483.033 31.432 483.577 31.128 483.865 31.128C484.953 31.128 485.497 31.656 485.497 32.712C485.497 32.968 485.177 33.496 484.537 34.296C483.993 35 483.225 35.896 482.233 36.984C481.241 38.072 480.089 39.224 478.777 40.44C477.497 41.624 476.121 42.744 474.649 43.8C473.209 44.856 471.769 45.72 470.329 46.392C468.889 47.064 467.529 47.4 466.249 47.4Z" fill="black"/>
</svg>
