<svg width="584" height="47" viewBox="0 0 584 47" fill="none" xmlns="http://www.w3.org/2000/svg">
<path d="M19.208 29.808C17.352 29.808 15.528 29.584 13.736 29.136C11.976 28.688 10.312 28.112 8.744 27.408C8.04 30.288 7.432 33.44 6.92 36.864C6.792 37.824 6.6 38.704 6.344 39.504C6.088 40.272 5.688 40.896 5.144 41.376C4.6 41.856 3.8 42.096 2.744 42.096C1.752 42.096 1.096 41.712 0.776 40.944C0.456 40.176 0.296 39.232 0.296 38.112C0.296 37.76 0.424001 36.848 0.680001 35.376C0.936001 33.904 1.256 32.128 1.64 30.048C2.024 27.936 2.424 25.76 2.84 23.52C1.528 22.208 0.872 21.008 0.872 19.92C0.872 19.376 1.032 18.864 1.352 18.384C1.704 17.872 2.376 17.616 3.368 17.616C3.496 17.616 3.672 17.664 3.896 17.76C4.216 15.968 4.488 14.368 4.712 12.96C4.968 11.52 5.112 10.48 5.144 9.84C5.208 8.624 5.4 7.728 5.72 7.152C6.04 6.544 6.44 6.144 6.92 5.952C7.432 5.728 7.944 5.616 8.456 5.616C9.128 5.616 9.64 5.76 9.992 6.048C10.344 6.336 10.52 6.976 10.52 7.968C10.52 8.928 10.504 9.808 10.472 10.608C12.04 7.92 13.672 6.032 15.368 4.944C17.064 3.824 18.92 3.264 20.936 3.264C22.92 3.264 24.648 3.808 26.12 4.896C27.592 5.984 28.728 7.552 29.528 9.6C30.36 11.616 30.776 14.048 30.776 16.896C30.776 21.248 29.768 24.496 27.752 26.64C25.768 28.752 22.92 29.808 19.208 29.808ZM10.376 21.744C11.56 22.384 12.824 22.944 14.168 23.424C15.512 23.872 16.888 24.096 18.296 24.096C20.568 24.096 22.232 23.504 23.288 22.32C24.376 21.136 24.92 19.184 24.92 16.464C24.92 11.632 23.464 9.216 20.552 9.216C18.696 9.216 16.888 10.256 15.128 12.336C13.4 14.416 11.816 17.552 10.376 21.744ZM40.3389 41.76C39.1549 41.76 38.2749 41.296 37.6989 40.368C37.1229 39.408 36.8349 37.68 36.8349 35.184C36.8349 31.984 37.1229 28.832 37.6989 25.728C38.3069 22.624 39.1549 19.712 40.2429 16.992C41.3629 14.272 42.7069 11.888 44.2749 9.84C45.8749 7.76 47.6829 6.144 49.6989 4.992C51.7149 3.808 53.9069 3.216 56.2749 3.216C59.7949 3.216 62.4029 4.16 64.0989 6.048C65.8269 7.904 66.6909 10.64 66.6909 14.256C66.6909 16.176 66.3069 17.888 65.5389 19.392C64.7709 20.864 63.7629 22.032 62.5149 22.896C61.2989 23.728 59.9869 24.144 58.5789 24.144C57.7789 24.144 56.9309 24 56.0349 23.712C57.7629 25.952 59.4909 27.904 61.2189 29.568C62.9789 31.232 64.7229 32.768 66.4509 34.176C68.2109 35.552 69.9709 36.96 71.7309 38.4C72.6589 39.136 73.1869 39.92 73.3149 40.752C73.4429 41.584 73.2189 42.288 72.6429 42.864C72.0989 43.472 71.2509 43.776 70.0989 43.776C69.2029 43.776 68.0669 43.376 66.6909 42.576C65.3149 41.808 63.8269 40.768 62.2269 39.456C60.6269 38.112 59.0269 36.624 57.4269 34.992C55.8589 33.36 54.4189 31.696 53.1069 30C51.8269 28.304 50.7869 26.688 49.9869 25.152C49.2189 23.616 48.8349 22.304 48.8349 21.216C48.8349 20.192 49.1069 19.408 49.6509 18.864C50.1949 18.288 50.8989 18 51.7629 18C52.4669 18 53.1069 18.096 53.6829 18.288C54.2909 18.48 54.9309 18.576 55.6029 18.576C56.3069 18.576 57.0429 18.384 57.8109 18C58.6109 17.616 59.2829 17.024 59.8269 16.224C60.3709 15.392 60.6429 14.336 60.6429 13.056C60.6429 11.648 60.2429 10.704 59.4429 10.224C58.6749 9.744 57.6349 9.504 56.3229 9.504C54.4989 9.504 52.8509 10.144 51.3789 11.424C49.9069 12.704 48.6269 14.512 47.5389 16.848C46.4509 19.184 45.5709 21.936 44.8989 25.104C44.2589 28.272 43.8269 31.728 43.6029 35.472C43.4749 37.904 43.1549 39.568 42.6429 40.464C42.1309 41.328 41.3629 41.76 40.3389 41.76ZM85.3092 16.368C83.7732 16.368 82.6852 16.208 82.0452 15.888C81.4052 15.568 81.0212 15.184 80.8932 14.736C80.7652 14.288 80.7012 13.904 80.7012 13.584C80.7012 13.552 80.7012 13.536 80.7012 13.536C80.7012 12.832 81.0212 12.16 81.6612 11.52C82.3012 10.848 83.1972 10.384 84.3492 10.128C85.3092 9.936 86.4452 9.744 87.7572 9.552C89.1012 9.328 90.5092 9.136 91.9812 8.976C93.4852 8.784 94.9252 8.64 96.3012 8.544C97.6772 8.448 98.8932 8.4 99.9492 8.4C101.357 8.4 102.445 8.608 103.213 9.024C103.981 9.408 104.509 9.856 104.797 10.368C105.117 10.88 105.277 11.312 105.277 11.664C105.277 11.984 105.197 12.304 105.037 12.624C104.877 12.944 104.477 13.264 103.837 13.584C103.229 13.904 102.253 14.208 100.909 14.496C99.5652 14.784 97.7092 15.056 95.3412 15.312C95.1172 15.344 94.8772 15.376 94.6212 15.408C94.3972 16.784 94.1252 18.432 93.8052 20.352C93.4852 22.24 93.1332 24.224 92.7492 26.304C92.3972 28.352 92.0452 30.32 91.6932 32.208C91.3732 34.064 91.0852 35.648 90.8292 36.96C92.1412 36.832 93.2932 36.736 94.2852 36.672C95.3092 36.608 95.9972 36.576 96.3492 36.576C97.4692 36.576 98.2372 36.816 98.6532 37.296C99.0692 37.744 99.2772 38.336 99.2772 39.072C99.2772 39.36 98.7652 39.808 97.7412 40.416C96.7172 41.024 95.2932 41.68 93.4692 42.384C91.6772 43.088 89.6132 43.712 87.2772 44.256C85.7412 44.608 84.2212 44.88 82.7172 45.072C81.2132 45.264 80.1252 45.36 79.4532 45.36C78.1412 45.36 77.2932 45.12 76.9092 44.64C76.5572 44.16 76.3812 43.552 76.3812 42.816C76.3812 42.176 76.5732 41.52 76.9572 40.848C77.3732 40.176 77.9492 39.696 78.6852 39.408C79.4532 39.12 80.3012 38.848 81.2292 38.592C82.1572 38.336 83.1172 38.112 84.1092 37.92C84.1732 37.088 84.3012 35.984 84.4932 34.608C84.6852 33.232 84.8932 31.728 85.1172 30.096C85.3732 28.432 85.6292 26.752 85.8852 25.056C86.1732 23.328 86.4452 21.712 86.7012 20.208C86.9892 18.672 87.2292 17.344 87.4212 16.224C86.4932 16.32 85.7892 16.368 85.3092 16.368ZM124.306 46.848C123.026 46.848 122.098 46.528 121.522 45.888C120.946 45.248 120.658 44.496 120.658 43.632C120.658 42.608 121.202 40.32 122.29 36.768C123.378 33.184 125.138 28.32 127.57 22.176C126.45 23.584 125.314 24.88 124.162 26.064C123.01 27.248 121.858 28.192 120.706 28.896C119.586 29.568 118.482 29.904 117.394 29.904C114.994 29.904 113.122 29.168 111.778 27.696C110.434 26.224 109.762 23.872 109.762 20.64C109.762 17.312 110.018 14.48 110.53 12.144C111.042 9.776 111.666 7.856 112.402 6.384C113.138 4.912 113.858 3.84 114.562 3.168C115.266 2.464 115.81 2.112 116.194 2.112C117.346 2.112 118.226 2.384 118.834 2.928C119.474 3.44 119.794 4.16 119.794 5.088C119.794 5.984 119.602 6.944 119.218 7.968C118.866 8.992 118.45 10.176 117.97 11.52C117.49 12.864 117.058 14.464 116.674 16.32C116.322 18.144 116.146 20.32 116.146 22.848C116.146 23.424 116.338 23.712 116.722 23.712C117.842 23.712 118.994 23.312 120.178 22.512C121.394 21.68 122.594 20.608 123.778 19.296C124.994 17.984 126.146 16.544 127.234 14.976C128.322 13.376 129.314 11.792 130.21 10.224C131.138 8.656 131.906 7.248 132.514 6C132.898 5.264 133.25 4.592 133.57 3.984C133.89 3.344 134.306 2.848 134.818 2.496C135.33 2.112 136.034 1.92 136.93 1.92C138.05 1.92 138.898 2.224 139.474 2.832C140.082 3.44 140.386 4.304 140.386 5.424C140.386 6.064 139.778 7.824 138.562 10.704C137.346 13.552 135.794 17.824 133.906 23.52C132.53 27.68 131.378 31.168 130.45 33.984C129.522 36.8 128.738 39.072 128.098 40.8C127.49 42.496 126.978 43.776 126.562 44.64C126.146 45.504 125.762 46.08 125.41 46.368C125.058 46.688 124.69 46.848 124.306 46.848ZM145.374 43.296C144.606 43.296 143.934 43.072 143.358 42.624C142.782 42.176 142.494 41.216 142.494 39.744C142.494 39.072 142.734 38 143.214 36.528C143.694 35.056 144.334 33.328 145.134 31.344C145.966 29.328 146.894 27.2 147.918 24.96C148.942 22.72 150.014 20.496 151.134 18.288C152.254 16.08 153.342 14.032 154.398 12.144C155.454 10.256 156.43 8.656 157.326 7.344C158.254 6 159.006 5.104 159.582 4.656C160.414 4.048 161.246 3.744 162.078 3.744C162.526 3.744 162.958 3.792 163.374 3.888C163.822 3.984 164.19 4.144 164.478 4.368C165.15 4.784 165.742 5.584 166.254 6.768C166.798 7.92 167.278 9.312 167.694 10.944C168.142 12.576 168.51 14.336 168.798 16.224C169.118 18.08 169.39 19.92 169.614 21.744C170.83 21.584 171.662 21.504 172.11 21.504C173.07 21.504 173.918 21.648 174.654 21.936C175.39 22.192 175.774 22.736 175.806 23.568C175.87 24.368 175.614 25.04 175.038 25.584C174.494 26.128 173.79 26.528 172.926 26.784C172.542 26.912 171.614 27.12 170.142 27.408C170.238 29.04 170.286 30.416 170.286 31.536C170.286 34.384 170.126 36.592 169.806 38.16C169.518 39.728 169.134 40.848 168.654 41.52C168.206 42.192 167.726 42.592 167.214 42.72C166.734 42.88 166.302 42.96 165.918 42.96C165.886 42.96 165.854 42.96 165.822 42.96C164.894 42.96 164.206 42.72 163.758 42.24C163.342 41.76 163.134 40.96 163.134 39.84V36.432C163.134 35.376 163.118 34.192 163.086 32.88C163.054 31.568 162.99 30.176 162.894 28.704C161.006 29.024 159.118 29.344 157.23 29.664C155.374 29.952 153.774 30.208 152.43 30.432C151.822 31.872 151.294 33.168 150.846 34.32C150.398 35.44 150.094 36.32 149.934 36.96C149.454 38.528 149.006 39.76 148.59 40.656C148.174 41.52 147.774 42.128 147.39 42.48C147.038 42.864 146.702 43.088 146.382 43.152C146.062 43.248 145.726 43.296 145.374 43.296ZM155.07 24.528C156.414 24.208 157.71 23.92 158.958 23.664C160.206 23.376 161.39 23.12 162.51 22.896C162.35 20.912 162.158 18.976 161.934 17.088C161.71 15.2 161.454 13.52 161.166 12.048C160.334 13.648 159.358 15.568 158.238 17.808C157.15 20.016 156.094 22.256 155.07 24.528ZM204.18 45.168C203.508 45.168 202.884 45.008 202.308 44.688C201.732 44.368 201.268 43.808 200.916 43.008C200.596 42.208 200.5 41.088 200.628 39.648C199.508 35.872 198.484 32.112 197.556 28.368C196.66 24.624 195.812 20.768 195.012 16.8C193.86 19.424 192.82 22.112 191.892 24.864C190.964 27.584 190.132 30.16 189.396 32.592C188.66 34.992 187.988 37.008 187.38 38.64C186.9 40.08 186.42 41.152 185.94 41.856C185.46 42.528 184.98 42.96 184.5 43.152C184.052 43.376 183.604 43.488 183.156 43.488C182.068 43.488 181.236 43.232 180.66 42.72C180.084 42.208 179.796 41.28 179.796 39.936C179.796 39.232 179.988 38.16 180.372 36.72C180.756 35.248 181.268 33.568 181.908 31.68C182.58 29.76 183.348 27.76 184.212 25.68C185.076 23.568 185.988 21.52 186.948 19.536C187.908 17.552 188.868 15.76 189.828 14.16C190.788 12.528 191.716 11.232 192.612 10.272C193.508 9.312 194.308 8.832 195.012 8.832C195.62 8.832 196.18 8.896 196.692 9.024C197.204 9.12 197.7 9.408 198.18 9.888C198.66 10.336 199.156 11.088 199.668 12.144C200.084 12.944 200.5 14.096 200.916 15.6C201.332 17.072 201.732 18.768 202.116 20.688C202.5 22.576 202.884 24.56 203.268 26.64C203.684 28.72 204.1 30.752 204.516 32.736C205.732 27.2 206.708 22.336 207.444 18.144C208.212 13.92 208.772 10.608 209.124 8.208C209.476 5.808 209.668 4.544 209.7 4.416C209.924 3.488 210.164 2.848 210.42 2.496C210.676 2.112 210.964 1.888 211.284 1.824C211.604 1.728 211.972 1.68 212.388 1.68C212.42 1.68 212.436 1.68 212.436 1.68C213.268 1.68 214.084 2.016 214.884 2.688C215.716 3.36 216.132 4.272 216.132 5.424C216.132 5.808 216.052 6.672 215.892 8.016C215.733 9.328 215.492 10.992 215.172 13.008C214.884 14.992 214.5 17.2 214.02 19.632C213.54 22.032 212.98 24.544 212.34 27.168C211.732 29.76 211.044 32.336 210.276 34.896C209.508 37.456 208.66 39.856 207.732 42.096C207.22 43.376 206.612 44.208 205.908 44.592C205.236 44.976 204.66 45.168 204.18 45.168ZM227.053 43.872C225.773 43.872 224.813 43.52 224.173 42.816C223.533 42.112 223.213 41.392 223.213 40.656C223.213 39.792 223.373 39.136 223.693 38.688C224.013 38.24 224.637 37.904 225.565 37.68C226.781 37.424 228.045 37.104 229.357 36.72C230.701 36.336 231.981 35.936 233.197 35.52C234.445 35.072 235.533 34.624 236.461 34.176C237.389 33.696 238.061 33.248 238.477 32.832C237.965 32.544 237.149 32.208 236.029 31.824C234.909 31.408 233.661 30.928 232.285 30.384C230.941 29.808 229.645 29.136 228.397 28.368C227.149 27.6 226.125 26.704 225.325 25.68C224.525 24.656 224.125 23.488 224.125 22.176C224.125 20.352 224.589 18.64 225.517 17.04C226.445 15.44 227.677 13.952 229.213 12.576C230.749 11.2 232.413 9.936 234.205 8.784C236.029 7.632 237.837 6.592 239.629 5.664C241.453 4.704 243.085 3.856 244.525 3.12C245.069 2.8 245.581 2.592 246.061 2.496C246.573 2.368 247.037 2.304 247.453 2.304C248.893 2.304 249.885 2.656 250.429 3.36C250.973 4.064 251.245 4.784 251.245 5.52C251.245 6.032 251.005 6.64 250.525 7.344C250.045 8.016 249.277 8.64 248.221 9.216C247.197 9.792 245.837 10.208 244.141 10.464C243.853 10.496 243.597 10.528 243.373 10.56C242.093 11.2 240.717 11.968 239.245 12.864C237.773 13.76 236.381 14.704 235.069 15.696C233.789 16.656 232.733 17.616 231.901 18.576C231.069 19.536 230.653 20.4 230.653 21.168C230.653 22.032 231.005 22.816 231.709 23.52C232.413 24.192 233.309 24.816 234.397 25.392C235.517 25.936 236.685 26.464 237.901 26.976C239.149 27.488 240.317 28.016 241.405 28.56C242.525 29.072 243.437 29.648 244.141 30.288C244.845 30.928 245.197 31.648 245.197 32.448C245.197 33.536 244.829 34.576 244.093 35.568C243.357 36.56 242.397 37.488 241.213 38.352C240.029 39.184 238.733 39.936 237.325 40.608C235.917 41.28 234.525 41.856 233.149 42.336C231.805 42.848 230.589 43.232 229.501 43.488C228.413 43.744 227.597 43.872 227.053 43.872ZM258.215 41.232C258.215 41.232 258.199 41.232 258.167 41.232C257.655 41.232 257.143 41.152 256.631 40.992C256.119 40.832 255.703 40.368 255.383 39.6C255.063 38.8 254.903 37.456 254.903 35.568C254.903 34.256 255.079 32.656 255.431 30.768C255.783 28.88 256.231 26.848 256.775 24.672C257.351 22.464 257.975 20.272 258.647 18.096C259.319 15.92 259.959 13.888 260.567 12C261.207 10.112 261.767 8.496 262.247 7.152C262.759 5.808 263.127 4.912 263.351 4.464C263.575 3.92 263.943 3.456 264.455 3.072C264.999 2.656 265.559 2.448 266.135 2.448C267.319 2.448 268.087 2.768 268.439 3.408C268.791 4.016 268.967 4.688 268.967 5.424C268.967 6.064 268.695 7.552 268.151 9.888C267.607 12.192 266.743 15.584 265.559 20.064C268.247 19.872 270.999 19.616 273.815 19.296C276.663 18.976 279.175 18.672 281.351 18.384C281.863 16.464 282.359 14.688 282.839 13.056C283.319 11.392 283.735 10 284.087 8.88C284.439 7.728 284.679 6.96 284.807 6.576C285.319 5.392 285.863 4.576 286.439 4.128C287.047 3.68 287.671 3.456 288.311 3.456C289.143 3.456 289.847 3.728 290.423 4.272C291.031 4.784 291.335 5.648 291.335 6.864C291.335 7.632 291.127 9.056 290.711 11.136C290.295 13.216 289.783 15.568 289.175 18.192C289.655 18.512 290.071 18.896 290.423 19.344C290.807 19.792 290.999 20.208 290.999 20.592C290.999 21.104 290.871 21.6 290.615 22.08C290.391 22.528 289.879 22.928 289.079 23.28C288.855 23.376 288.455 23.488 287.879 23.616C287.271 26.08 286.679 28.448 286.103 30.72C285.559 32.96 285.095 34.88 284.711 36.48C284.327 38.048 284.103 39.056 284.039 39.504C283.847 40.688 283.495 41.68 282.983 42.48C282.471 43.312 281.687 43.728 280.631 43.728C279.831 43.728 279.175 43.36 278.663 42.624C278.151 41.888 277.895 40.384 277.895 38.112C277.895 36.416 278.071 34.448 278.423 32.208C278.775 29.936 279.207 27.616 279.719 25.248C277.319 25.632 274.727 25.968 271.943 26.256C269.159 26.512 266.439 26.624 263.783 26.592C262.855 30.208 262.087 33.088 261.479 35.232C260.903 37.376 260.375 38.912 259.895 39.84C259.415 40.768 258.855 41.232 258.215 41.232ZM344.832 41.04C344.832 41.936 344.528 42.592 343.92 43.008C343.312 43.424 342.512 43.648 341.52 43.68C340.4 43.68 339.12 43.232 337.68 42.336C336.272 41.472 334.784 40.304 333.216 38.832C331.648 37.36 330.112 35.728 328.608 33.936C327.104 32.112 325.712 30.288 324.432 28.464C323.6 31.888 322.896 34.608 322.32 36.624C321.744 38.608 321.168 40.032 320.592 40.896C320.048 41.76 319.392 42.192 318.624 42.192C317.504 42.192 316.752 41.712 316.368 40.752C315.984 39.76 315.792 38.576 315.792 37.2C315.792 36.24 315.856 35.264 315.984 34.272C316.144 33.248 316.384 32.048 316.704 30.672C317.024 29.264 317.456 27.52 318 25.44C317.296 24.768 316.944 24.016 316.944 23.184C316.944 22.576 317.104 21.984 317.424 21.408C317.776 20.8 318.432 20.304 319.392 19.92C320.288 16.976 321.056 14.576 321.696 12.72C322.336 10.832 322.912 9.376 323.424 8.352C323.936 7.328 324.4 6.624 324.816 6.24C325.264 5.856 325.728 5.664 326.208 5.664C327.104 5.664 327.792 5.92 328.272 6.432C328.752 6.944 328.992 7.84 328.992 9.12C328.992 9.6 328.848 10.576 328.56 12.048C328.304 13.488 327.808 15.616 327.072 18.432C329.888 16.256 332.48 14.112 334.848 12C337.216 9.888 339.28 7.968 341.04 6.24C342.832 4.512 344.288 3.136 345.408 2.112C346.528 1.088 347.248 0.575998 347.568 0.575998C348.496 0.575998 349.232 0.879998 349.776 1.488C350.352 2.064 350.64 2.72 350.64 3.456C350.64 4.192 350.32 4.96 349.68 5.76C348.976 6.592 348.032 7.648 346.848 8.928C345.664 10.208 344.336 11.6 342.864 13.104C341.392 14.576 339.84 16.048 338.208 17.52C336.576 18.96 334.928 20.272 333.264 21.456C331.632 22.64 330.048 23.568 328.512 24.24C328.832 24.56 329.168 24.928 329.52 25.344C329.904 25.728 330.304 26.16 330.72 26.64C331.808 27.824 333.104 29.136 334.608 30.576C336.112 31.984 337.648 33.376 339.216 34.752C340.816 36.096 342.256 37.28 343.536 38.304C343.984 38.72 344.304 39.136 344.496 39.552C344.72 39.936 344.832 40.432 344.832 41.04ZM357.607 41.232C357.607 41.232 357.591 41.232 357.559 41.232C357.047 41.232 356.535 41.152 356.023 40.992C355.511 40.832 355.095 40.368 354.775 39.6C354.455 38.8 354.295 37.456 354.295 35.568C354.295 34.256 354.471 32.656 354.823 30.768C355.175 28.88 355.623 26.848 356.167 24.672C356.743 22.464 357.367 20.272 358.039 18.096C358.711 15.92 359.351 13.888 359.959 12C360.599 10.112 361.159 8.496 361.639 7.152C362.151 5.808 362.519 4.912 362.743 4.464C362.967 3.92 363.335 3.456 363.847 3.072C364.391 2.656 364.951 2.448 365.527 2.448C366.711 2.448 367.479 2.768 367.831 3.408C368.183 4.016 368.359 4.688 368.359 5.424C368.359 6.064 368.087 7.552 367.543 9.888C366.999 12.192 366.135 15.584 364.951 20.064C367.639 19.872 370.391 19.616 373.207 19.296C376.055 18.976 378.567 18.672 380.743 18.384C381.255 16.464 381.751 14.688 382.231 13.056C382.711 11.392 383.127 10 383.479 8.88C383.831 7.728 384.071 6.96 384.199 6.576C384.711 5.392 385.255 4.576 385.831 4.128C386.439 3.68 387.063 3.456 387.703 3.456C388.535 3.456 389.239 3.728 389.815 4.272C390.423 4.784 390.727 5.648 390.727 6.864C390.727 7.632 390.519 9.056 390.103 11.136C389.687 13.216 389.175 15.568 388.567 18.192C389.047 18.512 389.463 18.896 389.815 19.344C390.199 19.792 390.391 20.208 390.391 20.592C390.391 21.104 390.263 21.6 390.007 22.08C389.783 22.528 389.271 22.928 388.471 23.28C388.247 23.376 387.847 23.488 387.271 23.616C386.663 26.08 386.071 28.448 385.495 30.72C384.951 32.96 384.487 34.88 384.103 36.48C383.719 38.048 383.495 39.056 383.431 39.504C383.239 40.688 382.887 41.68 382.375 42.48C381.863 43.312 381.079 43.728 380.023 43.728C379.223 43.728 378.567 43.36 378.055 42.624C377.543 41.888 377.287 40.384 377.287 38.112C377.287 36.416 377.463 34.448 377.815 32.208C378.167 29.936 378.599 27.616 379.111 25.248C376.711 25.632 374.119 25.968 371.335 26.256C368.551 26.512 365.831 26.624 363.175 26.592C362.247 30.208 361.479 33.088 360.871 35.232C360.295 37.376 359.767 38.912 359.287 39.84C358.807 40.768 358.247 41.232 357.607 41.232ZM399.851 43.296C399.083 43.296 398.411 43.072 397.835 42.624C397.259 42.176 396.971 41.216 396.971 39.744C396.971 39.072 397.211 38 397.691 36.528C398.171 35.056 398.811 33.328 399.611 31.344C400.443 29.328 401.371 27.2 402.395 24.96C403.419 22.72 404.491 20.496 405.611 18.288C406.731 16.08 407.819 14.032 408.875 12.144C409.931 10.256 410.907 8.656 411.803 7.344C412.731 6 413.483 5.104 414.059 4.656C414.891 4.048 415.723 3.744 416.555 3.744C417.003 3.744 417.435 3.792 417.851 3.888C418.299 3.984 418.667 4.144 418.955 4.368C419.627 4.784 420.219 5.584 420.731 6.768C421.275 7.92 421.755 9.312 422.171 10.944C422.619 12.576 422.987 14.336 423.275 16.224C423.595 18.08 423.867 19.92 424.091 21.744C425.307 21.584 426.139 21.504 426.587 21.504C427.547 21.504 428.395 21.648 429.131 21.936C429.867 22.192 430.251 22.736 430.283 23.568C430.347 24.368 430.091 25.04 429.515 25.584C428.971 26.128 428.267 26.528 427.403 26.784C427.019 26.912 426.091 27.12 424.619 27.408C424.715 29.04 424.763 30.416 424.763 31.536C424.763 34.384 424.603 36.592 424.283 38.16C423.995 39.728 423.611 40.848 423.131 41.52C422.683 42.192 422.203 42.592 421.691 42.72C421.211 42.88 420.779 42.96 420.395 42.96C420.363 42.96 420.331 42.96 420.299 42.96C419.371 42.96 418.683 42.72 418.235 42.24C417.819 41.76 417.611 40.96 417.611 39.84V36.432C417.611 35.376 417.595 34.192 417.563 32.88C417.531 31.568 417.467 30.176 417.371 28.704C415.483 29.024 413.595 29.344 411.707 29.664C409.851 29.952 408.251 30.208 406.907 30.432C406.299 31.872 405.771 33.168 405.323 34.32C404.875 35.44 404.571 36.32 404.411 36.96C403.931 38.528 403.483 39.76 403.067 40.656C402.651 41.52 402.251 42.128 401.867 42.48C401.515 42.864 401.179 43.088 400.859 43.152C400.539 43.248 400.203 43.296 399.851 43.296ZM409.547 24.528C410.891 24.208 412.187 23.92 413.435 23.664C414.683 23.376 415.867 23.12 416.987 22.896C416.827 20.912 416.635 18.976 416.411 17.088C416.187 15.2 415.931 13.52 415.643 12.048C414.811 13.648 413.835 15.568 412.715 17.808C411.627 20.016 410.571 22.256 409.547 24.528ZM458.657 45.168C457.985 45.168 457.361 45.008 456.785 44.688C456.209 44.368 455.745 43.808 455.393 43.008C455.073 42.208 454.977 41.088 455.105 39.648C453.985 35.872 452.961 32.112 452.033 28.368C451.137 24.624 450.289 20.768 449.489 16.8C448.337 19.424 447.297 22.112 446.369 24.864C445.441 27.584 444.609 30.16 443.873 32.592C443.137 34.992 442.465 37.008 441.857 38.64C441.377 40.08 440.897 41.152 440.417 41.856C439.937 42.528 439.457 42.96 438.977 43.152C438.529 43.376 438.081 43.488 437.633 43.488C436.545 43.488 435.713 43.232 435.137 42.72C434.561 42.208 434.273 41.28 434.273 39.936C434.273 39.232 434.465 38.16 434.849 36.72C435.233 35.248 435.745 33.568 436.385 31.68C437.057 29.76 437.825 27.76 438.689 25.68C439.553 23.568 440.465 21.52 441.425 19.536C442.385 17.552 443.345 15.76 444.305 14.16C445.265 12.528 446.193 11.232 447.089 10.272C447.985 9.312 448.785 8.832 449.489 8.832C450.097 8.832 450.657 8.896 451.169 9.024C451.681 9.12 452.177 9.408 452.657 9.888C453.137 10.336 453.633 11.088 454.145 12.144C454.561 12.944 454.977 14.096 455.393 15.6C455.809 17.072 456.209 18.768 456.593 20.688C456.977 22.576 457.361 24.56 457.745 26.64C458.161 28.72 458.577 30.752 458.993 32.736C460.209 27.2 461.185 22.336 461.921 18.144C462.689 13.92 463.249 10.608 463.601 8.208C463.953 5.808 464.145 4.544 464.177 4.416C464.401 3.488 464.641 2.848 464.897 2.496C465.153 2.112 465.441 1.888 465.761 1.824C466.081 1.728 466.449 1.68 466.865 1.68C466.897 1.68 466.913 1.68 466.913 1.68C467.745 1.68 468.561 2.016 469.361 2.688C470.193 3.36 470.609 4.272 470.609 5.424C470.609 5.808 470.529 6.672 470.369 8.016C470.209 9.328 469.969 10.992 469.649 13.008C469.361 14.992 468.977 17.2 468.497 19.632C468.017 22.032 467.457 24.544 466.817 27.168C466.209 29.76 465.521 32.336 464.753 34.896C463.985 37.456 463.137 39.856 462.209 42.096C461.697 43.376 461.089 44.208 460.385 44.592C459.713 44.976 459.137 45.168 458.657 45.168ZM480.545 44.928C479.617 44.928 478.881 44.672 478.337 44.16C477.825 43.68 477.569 42.992 477.569 42.096C477.569 41.264 477.793 40.56 478.241 39.984C478.689 39.376 479.553 38.8 480.833 38.256C480.929 38.224 481.025 38.192 481.121 38.16C480.321 38 479.761 37.552 479.441 36.816C479.153 36.08 479.009 35.232 479.009 34.272C479.009 33.728 479.105 32.848 479.297 31.632C479.489 30.416 479.729 29.024 480.017 27.456C480.305 25.888 480.609 24.336 480.929 22.8C481.249 21.232 481.521 19.856 481.745 18.672C482.353 15.952 483.137 13.552 484.097 11.472C485.057 9.392 486.353 7.776 487.985 6.624C489.617 5.44 491.713 4.848 494.273 4.848C496.225 4.848 498.145 5.264 500.033 6.096C501.953 6.896 503.697 8.032 505.265 9.504C506.833 10.976 508.081 12.704 509.009 14.688C509.969 16.672 510.449 18.848 510.449 21.216C510.449 23.904 509.393 26.608 507.281 29.328C505.169 32.048 502.209 34.656 498.401 37.152C494.625 39.616 490.209 41.84 485.153 43.824C484.321 44.144 483.569 44.4 482.897 44.592C482.257 44.816 481.473 44.928 480.545 44.928ZM484.673 36.768C489.313 34.912 493.057 33.136 495.905 31.44C498.753 29.744 500.817 27.952 502.097 26.064C503.409 24.176 504.065 22.032 504.065 19.632C504.065 18.288 503.617 17.008 502.721 15.792C501.825 14.576 500.673 13.6 499.265 12.864C497.857 12.096 496.369 11.712 494.801 11.712C493.105 11.712 491.745 12.4 490.721 13.776C489.697 15.12 488.881 17.424 488.273 20.688C487.985 22 487.681 23.424 487.361 24.96C487.073 26.464 486.785 27.92 486.497 29.328C486.241 30.704 486.017 31.856 485.825 32.784C485.665 33.712 485.569 34.256 485.537 34.416C485.377 35.376 485.089 36.16 484.673 36.768ZM518.696 43.296C517.928 43.296 517.256 43.072 516.68 42.624C516.104 42.176 515.816 41.216 515.816 39.744C515.816 39.072 516.056 38 516.536 36.528C517.016 35.056 517.656 33.328 518.456 31.344C519.288 29.328 520.216 27.2 521.24 24.96C522.264 22.72 523.336 20.496 524.456 18.288C525.576 16.08 526.664 14.032 527.72 12.144C528.776 10.256 529.752 8.656 530.648 7.344C531.576 6 532.328 5.104 532.904 4.656C533.736 4.048 534.568 3.744 535.4 3.744C535.848 3.744 536.28 3.792 536.696 3.888C537.144 3.984 537.512 4.144 537.8 4.368C538.472 4.784 539.064 5.584 539.576 6.768C540.12 7.92 540.6 9.312 541.016 10.944C541.464 12.576 541.832 14.336 542.12 16.224C542.44 18.08 542.712 19.92 542.936 21.744C544.152 21.584 544.984 21.504 545.432 21.504C546.392 21.504 547.24 21.648 547.976 21.936C548.712 22.192 549.096 22.736 549.128 23.568C549.192 24.368 548.936 25.04 548.36 25.584C547.816 26.128 547.112 26.528 546.248 26.784C545.864 26.912 544.936 27.12 543.464 27.408C543.56 29.04 543.608 30.416 543.608 31.536C543.608 34.384 543.448 36.592 543.128 38.16C542.84 39.728 542.456 40.848 541.976 41.52C541.528 42.192 541.048 42.592 540.536 42.72C540.056 42.88 539.624 42.96 539.24 42.96C539.208 42.96 539.176 42.96 539.144 42.96C538.216 42.96 537.528 42.72 537.08 42.24C536.664 41.76 536.456 40.96 536.456 39.84V36.432C536.456 35.376 536.44 34.192 536.408 32.88C536.376 31.568 536.312 30.176 536.216 28.704C534.328 29.024 532.44 29.344 530.552 29.664C528.696 29.952 527.096 30.208 525.752 30.432C525.144 31.872 524.616 33.168 524.168 34.32C523.72 35.44 523.416 36.32 523.256 36.96C522.776 38.528 522.328 39.76 521.912 40.656C521.496 41.52 521.096 42.128 520.712 42.48C520.36 42.864 520.024 43.088 519.704 43.152C519.384 43.248 519.048 43.296 518.696 43.296ZM528.392 24.528C529.736 24.208 531.032 23.92 532.28 23.664C533.528 23.376 534.712 23.12 535.832 22.896C535.672 20.912 535.48 18.976 535.256 17.088C535.032 15.2 534.776 13.52 534.488 12.048C533.656 13.648 532.68 15.568 531.56 17.808C530.472 20.016 529.416 22.256 528.392 24.528ZM565.268 44.496C564.084 44.496 562.852 44.208 561.572 43.632C560.292 43.088 559.204 42.16 558.308 40.848C557.444 39.536 557.012 37.792 557.012 35.616C557.012 33.312 557.204 30.928 557.588 28.464C558.004 25.968 558.532 23.52 559.172 21.12C559.844 18.688 560.564 16.4 561.332 14.256C562.132 12.112 562.916 10.208 563.684 8.544C564.484 6.88 565.22 5.584 565.892 4.656C566.596 3.696 567.156 3.216 567.572 3.216C568.436 3.216 569.204 3.536 569.876 4.176C570.58 4.816 570.932 5.792 570.932 7.104C570.932 7.424 570.74 8.208 570.356 9.456C570.004 10.672 569.54 12.192 568.964 14.016C568.42 15.84 567.812 17.824 567.14 19.968C566.5 22.08 565.892 24.224 565.316 26.4C564.772 28.576 564.308 30.624 563.924 32.544C563.572 34.464 563.396 36.112 563.396 37.488C563.396 37.872 563.62 38.064 564.068 38.064C564.708 38.064 565.652 37.904 566.9 37.584C568.18 37.264 569.572 36.864 571.076 36.384C572.612 35.872 574.084 35.376 575.492 34.896C576.9 34.416 578.1 34.016 579.092 33.696C580.084 33.376 580.644 33.216 580.772 33.216C581.572 33.216 582.212 33.44 582.692 33.888C583.172 34.336 583.412 34.976 583.412 35.808C583.412 36.384 583.028 37.056 582.26 37.824C581.492 38.56 580.468 39.328 579.188 40.128C577.908 40.896 576.468 41.6 574.868 42.24C573.3 42.912 571.684 43.456 570.02 43.872C568.356 44.288 566.772 44.496 565.268 44.496Z" fill="black"/>
</svg>
